<svg xmlns="http://www.w3.org/2000/svg" viewBox="0 0 402 379" role="img" aria-labelledby="title description">
    <title id="title">中国科学院近代物理研究所标志</title>
    <desc id="description">依据现有 PNG 重绘的非官方矢量版本：橙色轨道、蓝色 IMP 字样与三个红球。</desc>
    <defs>
        <radialGradient id="red-ball" cx="36%" cy="30%" r="70%">
            <stop offset="0" stop-color="#fff0ed"/>
            <stop offset="0.23" stop-color="#ffaaa9"/>
            <stop offset="0.52" stop-color="#f2474d"/>
            <stop offset="0.8" stop-color="#e62129"/>
            <stop offset="1" stop-color="#b91a25"/>
        </radialGradient>
    </defs>
    <path fill="#f08519" fill-rule="evenodd" d="M 173.77,164.08 C 173.00 164.03 171.85 163.89 171.60 163.38 C 171.34 162.87 171.97 161.78 172.26 161.01 C 172.56 160.24 173.00 159.51 173.37 158.76 C 173.74 158.01 174.12 157.26 174.49 156.51 C 174.87 155.76 175.24 155.02 175.62 154.27 C 175.99 153.52 176.36 152.77 176.74 152.02 C 177.11 151.28 177.49 150.53 177.86 149.78 C 178.23 149.03 178.61 148.28 178.98 147.53 C 179.36 146.79 179.73 146.04 180.11 145.29 C 180.48 144.54 180.85 143.79 181.23 143.04 C 181.60 142.30 181.98 141.55 182.35 140.80 C 182.73 140.05 183.09 139.30 183.48 138.56 C 183.86 137.82 184.25 137.07 184.67 136.35 C 185.09 135.62 185.57 134.94 185.99 134.22 C 186.42 133.50 186.83 132.77 187.22 132.03 C 187.62 131.29 187.98 130.54 188.35 129.79 C 188.73 129.04 189.10 128.29 189.48 127.55 C 189.87 126.81 190.25 126.06 190.67 125.34 C 191.09 124.62 191.57 123.93 192.00 123.21 C 192.42 122.49 192.83 121.75 193.23 121.02 C 193.63 120.29 193.99 119.53 194.41 118.80 C 194.82 118.08 195.28 117.38 195.71 116.66 C 196.14 115.94 196.57 115.23 196.98 114.50 C 197.38 113.76 197.74 113.00 198.15 112.27 C 198.55 111.54 199.00 110.83 199.43 110.12 C 199.86 109.40 200.30 108.69 200.73 107.97 C 201.16 107.25 201.56 106.52 201.99 105.80 C 202.43 105.09 202.89 104.39 203.32 103.68 C 203.75 102.96 204.14 102.22 204.57 101.50 C 205.01 100.78 205.46 100.08 205.92 99.38 C 206.37 98.68 206.85 97.99 207.30 97.29 C 207.75 96.58 208.20 95.87 208.63 95.16 C 209.06 94.44 209.45 93.70 209.89 92.98 C 210.32 92.27 210.79 91.58 211.25 90.88 C 211.71 90.18 212.18 89.49 212.64 88.79 C 213.10 88.09 213.57 87.40 214.03 86.70 C 214.50 86.00 214.96 85.31 215.42 84.61 C 215.89 83.92 216.35 83.22 216.82 82.53 C 217.28 81.83 217.74 81.13 218.21 80.44 C 218.67 79.74 219.13 79.04 219.62 78.36 C 220.10 77.68 220.62 77.02 221.12 76.35 C 221.62 75.68 222.12 75.01 222.60 74.33 C 223.08 73.64 223.53 72.93 224.01 72.25 C 224.48 71.56 224.96 70.87 225.46 70.20 C 225.95 69.53 226.49 68.88 226.98 68.21 C 227.48 67.53 227.93 66.83 228.41 66.14 C 228.88 65.45 229.33 64.74 229.82 64.07 C 230.32 63.40 230.87 62.76 231.40 62.12 C 231.93 61.47 232.48 60.84 233.00 60.18 C 233.51 59.52 233.98 58.83 234.49 58.16 C 234.99 57.49 235.51 56.84 236.02 56.17 C 236.52 55.50 236.98 54.81 237.51 54.16 C 238.04 53.51 238.64 52.92 239.19 52.29 C 239.75 51.67 240.31 51.05 240.84 50.40 C 241.36 49.75 241.81 49.03 242.33 48.39 C 242.86 47.74 243.43 47.13 244.00 46.51 C 244.57 45.90 245.19 45.33 245.74 44.70 C 246.29 44.07 246.80 43.41 247.32 42.75 C 247.84 42.10 248.31 41.40 248.85 40.76 C 249.39 40.13 249.99 39.54 250.57 38.94 C 251.15 38.34 251.75 37.75 252.34 37.16 C 252.93 36.57 253.52 35.98 254.11 35.39 C 254.71 34.79 255.30 34.20 255.89 33.61 C 256.48 33.02 257.07 32.42 257.67 31.84 C 258.26 31.25 258.85 30.65 259.48 30.10 C 260.10 29.55 260.78 29.06 261.44 28.54 C 262.10 28.03 262.78 27.54 263.42 27.00 C 264.05 26.46 264.63 25.84 265.26 25.29 C 265.89 24.75 266.55 24.23 267.21 23.71 C 267.87 23.20 268.55 22.72 269.22 22.22 C 269.89 21.72 270.55 21.19 271.23 20.71 C 271.91 20.22 272.60 19.75 273.31 19.31 C 274.02 18.87 274.74 18.44 275.48 18.04 C 276.21 17.64 276.96 17.27 277.71 16.90 C 278.46 16.52 279.20 16.14 279.95 15.77 C 280.70 15.40 281.45 15.01 282.21 14.68 C 282.98 14.35 283.76 14.04 284.56 13.79 C 285.35 13.53 286.17 13.33 286.98 13.15 C 287.80 12.97 288.62 12.79 289.45 12.70 C 290.28 12.60 291.12 12.56 291.96 12.58 C 292.79 12.61 293.63 12.69 294.45 12.84 C 295.27 12.99 296.08 13.22 296.87 13.49 C 297.66 13.76 298.45 14.07 299.18 14.46 C 299.91 14.86 300.60 15.35 301.25 15.87 C 301.90 16.39 302.49 16.99 303.07 17.60 C 303.65 18.20 304.22 18.82 304.73 19.48 C 305.25 20.14 305.72 20.83 306.15 21.54 C 306.59 22.26 306.98 23.00 307.32 23.76 C 307.66 24.52 307.93 25.32 308.20 26.11 C 308.47 26.91 308.72 27.70 308.94 28.51 C 309.16 29.32 309.32 30.14 309.49 30.96 C 309.66 31.78 309.83 32.60 309.97 33.42 C 310.12 34.25 310.27 35.07 310.36 35.90 C 310.44 36.73 310.46 37.57 310.48 38.41 C 310.51 39.24 310.50 40.08 310.50 40.92 C 310.50 41.75 310.50 42.59 310.50 43.43 C 310.50 44.26 310.50 45.10 310.50 45.94 C 310.50 46.77 310.52 47.61 310.48 48.44 C 310.43 49.28 310.51 50.19 310.25 50.94 C 309.98 51.69 309.51 52.49 308.87 52.92 C 308.24 53.35 307.27 53.38 306.45 53.53 C 305.64 53.67 304.77 53.86 303.96 53.82 C 303.15 53.77 302.16 53.73 301.61 53.26 C 301.06 52.79 300.87 51.78 300.65 50.99 C 300.44 50.20 300.46 49.33 300.33 48.50 C 300.20 47.67 300.05 46.85 299.86 46.04 C 299.68 45.22 299.49 44.40 299.22 43.61 C 298.95 42.82 298.65 42.03 298.26 41.30 C 297.88 40.56 297.41 39.85 296.92 39.18 C 296.43 38.51 295.92 37.81 295.30 37.27 C 294.68 36.72 293.94 36.28 293.20 35.90 C 292.46 35.52 291.67 35.19 290.87 34.99 C 290.07 34.79 289.22 34.69 288.39 34.68 C 287.56 34.67 286.72 34.81 285.90 34.95 C 285.08 35.10 284.26 35.31 283.46 35.53 C 282.65 35.76 281.85 36.01 281.07 36.31 C 280.30 36.61 279.55 37.00 278.79 37.36 C 278.04 37.72 277.29 38.10 276.55 38.48 C 275.81 38.87 275.06 39.25 274.34 39.67 C 273.62 40.10 272.92 40.56 272.23 41.03 C 271.53 41.49 270.85 41.98 270.18 42.47 C 269.51 42.97 268.86 43.50 268.19 44.00 C 267.52 44.51 266.82 44.97 266.18 45.50 C 265.53 46.03 264.93 46.62 264.32 47.19 C 263.71 47.76 263.13 48.37 262.50 48.92 C 261.87 49.47 261.19 49.96 260.53 50.48 C 259.88 50.99 259.19 51.48 258.56 52.02 C 257.93 52.57 257.34 53.17 256.75 53.76 C 256.15 54.34 255.56 54.94 254.97 55.53 C 254.38 56.12 253.79 56.71 253.20 57.30 C 252.60 57.90 252.00 58.48 251.42 59.08 C 250.84 59.68 250.25 60.28 249.71 60.92 C 249.18 61.56 248.71 62.26 248.20 62.92 C 247.68 63.57 247.16 64.23 246.60 64.85 C 246.04 65.47 245.43 66.05 244.85 66.65 C 244.27 67.25 243.66 67.83 243.11 68.46 C 242.56 69.09 242.07 69.77 241.55 70.43 C 241.04 71.08 240.55 71.77 240.01 72.40 C 239.47 73.04 238.85 73.61 238.31 74.25 C 237.76 74.88 237.24 75.53 236.72 76.19 C 236.21 76.85 235.73 77.54 235.20 78.19 C 234.68 78.84 234.09 79.44 233.57 80.09 C 233.04 80.74 232.57 81.43 232.07 82.10 C 231.56 82.77 231.04 83.42 230.54 84.09 C 230.04 84.76 229.56 85.45 229.05 86.12 C 228.55 86.79 228.03 87.44 227.53 88.11 C 227.02 88.78 226.55 89.46 226.04 90.13 C 225.54 90.80 225.01 91.45 224.52 92.12 C 224.02 92.79 223.54 93.48 223.06 94.17 C 222.59 94.86 222.13 95.56 221.66 96.25 C 221.20 96.95 220.74 97.65 220.27 98.34 C 219.80 99.03 219.34 99.73 218.84 100.40 C 218.35 101.08 217.81 101.72 217.31 102.39 C 216.82 103.07 216.35 103.76 215.87 104.45 C 215.40 105.14 214.94 105.84 214.48 106.53 C 214.02 107.23 213.54 107.92 213.10 108.63 C 212.66 109.34 212.26 110.08 211.83 110.80 C 211.40 111.51 210.98 112.23 210.53 112.94 C 210.08 113.65 209.61 114.34 209.14 115.03 C 208.68 115.73 208.21 116.42 207.75 117.12 C 207.29 117.82 206.82 118.51 206.37 119.22 C 205.92 119.92 205.50 120.65 205.08 121.37 C 204.65 122.09 204.23 122.81 203.80 123.53 C 203.37 124.24 202.91 124.94 202.48 125.66 C 202.05 126.38 201.66 127.12 201.23 127.84 C 200.80 128.55 200.33 129.25 199.90 129.96 C 199.46 130.68 199.07 131.42 198.64 132.14 C 198.21 132.85 197.76 133.56 197.33 134.28 C 196.90 134.99 196.46 135.71 196.06 136.44 C 195.65 137.17 195.30 137.93 194.89 138.66 C 194.48 139.39 194.04 140.10 193.61 140.82 C 193.18 141.54 192.73 142.24 192.31 142.97 C 191.90 143.70 191.54 144.45 191.14 145.19 C 190.74 145.92 190.33 146.65 189.90 147.37 C 189.47 148.09 189.00 148.78 188.58 149.50 C 188.16 150.23 187.78 150.97 187.40 151.71 C 187.01 152.46 186.65 153.21 186.27 153.96 C 185.90 154.71 185.52 155.45 185.15 156.20 C 184.77 156.95 184.41 157.71 184.02 158.45 C 183.63 159.19 183.30 159.98 182.81 160.64 C 182.31 161.30 181.75 161.98 181.07 162.42 C 180.39 162.86 179.53 163.07 178.73 163.28 C 177.92 163.49 177.07 163.55 176.25 163.68 C 175.42 163.81 174.55 164.13 173.77 164.08 Z M 181.00,125.43 C 180.38 125.45 179.68 124.48 179.09 123.90 C 178.50 123.33 178.02 122.61 177.45 121.99 C 176.89 121.37 176.28 120.79 175.69 120.19 C 175.10 119.59 174.50 119.00 173.91 118.41 C 173.31 117.81 172.72 117.22 172.13 116.63 C 171.53 116.03 170.94 115.44 170.34 114.84 C 169.75 114.25 169.16 113.66 168.56 113.06 C 167.97 112.47 167.37 111.87 166.78 111.28 C 166.19 110.69 165.59 110.09 165.00 109.50 C 164.41 108.91 163.81 108.31 163.22 107.72 C 162.62 107.12 162.03 106.53 161.44 105.94 C 160.84 105.34 160.26 104.74 159.65 104.16 C 159.04 103.58 158.43 103.00 157.78 102.47 C 157.13 101.93 156.42 101.48 155.76 100.96 C 155.11 100.44 154.48 99.88 153.83 99.35 C 153.18 98.82 152.54 98.27 151.86 97.77 C 151.19 97.27 150.48 96.82 149.78 96.35 C 149.08 95.88 148.39 95.42 147.68 94.96 C 146.98 94.50 146.28 94.04 145.55 93.61 C 144.83 93.19 144.08 92.81 143.33 92.42 C 142.59 92.04 141.84 91.66 141.08 91.29 C 140.32 90.93 139.57 90.56 138.79 90.26 C 138.00 89.95 137.20 89.71 136.39 89.49 C 135.58 89.28 134.75 89.05 133.93 88.95 C 133.10 88.86 132.24 88.81 131.42 88.92 C 130.60 89.03 129.76 89.27 129.00 89.60 C 128.23 89.92 127.48 90.35 126.83 90.87 C 126.19 91.39 125.61 92.04 125.13 92.72 C 124.65 93.39 124.28 94.17 123.95 94.93 C 123.61 95.70 123.35 96.51 123.13 97.31 C 122.91 98.12 122.79 98.96 122.63 99.78 C 122.47 100.61 122.52 101.54 122.18 102.26 C 121.84 102.98 121.27 103.69 120.60 104.10 C 119.93 104.51 118.97 104.50 118.16 104.71 C 117.34 104.93 116.53 105.29 115.73 105.38 C 114.93 105.48 113.88 105.71 113.35 105.31 C 112.83 104.90 112.73 103.77 112.59 102.96 C 112.45 102.15 112.52 101.28 112.51 100.44 C 112.49 99.60 112.50 98.76 112.50 97.92 C 112.50 97.08 112.50 96.24 112.50 95.40 C 112.50 94.56 112.50 93.72 112.50 92.88 C 112.50 92.04 112.49 91.20 112.52 90.36 C 112.54 89.53 112.56 88.68 112.65 87.85 C 112.74 87.02 112.89 86.19 113.06 85.37 C 113.23 84.54 113.44 83.73 113.66 82.92 C 113.87 82.11 114.10 81.29 114.36 80.50 C 114.63 79.70 114.92 78.91 115.25 78.14 C 115.59 77.37 115.95 76.61 116.37 75.89 C 116.80 75.17 117.28 74.47 117.81 73.82 C 118.34 73.18 118.94 72.56 119.57 72.02 C 120.21 71.48 120.90 70.98 121.62 70.57 C 122.35 70.16 123.14 69.85 123.93 69.56 C 124.72 69.28 125.53 69.04 126.35 68.88 C 127.17 68.72 128.02 68.63 128.86 68.62 C 129.69 68.61 130.54 68.69 131.36 68.81 C 132.19 68.94 133.01 69.14 133.83 69.35 C 134.64 69.55 135.45 69.78 136.25 70.04 C 137.04 70.31 137.82 70.64 138.59 70.96 C 139.37 71.28 140.15 71.60 140.90 71.97 C 141.65 72.34 142.37 72.79 143.10 73.20 C 143.83 73.61 144.57 74.02 145.29 74.45 C 146.01 74.88 146.72 75.33 147.42 75.79 C 148.13 76.24 148.82 76.71 149.52 77.18 C 150.22 77.65 150.93 78.10 151.61 78.59 C 152.29 79.09 152.94 79.61 153.59 80.14 C 154.24 80.67 154.86 81.25 155.52 81.77 C 156.17 82.29 156.89 82.75 157.54 83.27 C 158.19 83.80 158.81 84.37 159.43 84.94 C 160.04 85.52 160.62 86.12 161.22 86.72 C 161.81 87.31 162.40 87.90 163.00 88.50 C 163.59 89.09 164.18 89.68 164.78 90.28 C 165.37 90.87 165.97 91.47 166.56 92.06 C 167.15 92.65 167.75 93.25 168.34 93.84 C 168.94 94.44 169.53 95.03 170.12 95.62 C 170.72 96.22 171.31 96.81 171.91 97.41 C 172.50 98.00 173.10 98.59 173.68 99.19 C 174.26 99.80 174.85 100.40 175.39 101.04 C 175.93 101.69 176.39 102.40 176.91 103.06 C 177.43 103.71 177.96 104.36 178.52 104.99 C 179.08 105.61 179.71 106.18 180.27 106.80 C 180.84 107.42 181.39 108.05 181.92 108.71 C 182.44 109.36 182.90 110.07 183.42 110.73 C 183.94 111.38 184.56 111.98 185.05 112.65 C 185.55 113.32 186.18 113.99 186.41 114.76 C 186.65 115.52 186.65 116.43 186.48 117.22 C 186.31 118.01 185.81 118.76 185.41 119.50 C 185.02 120.24 184.53 120.93 184.09 121.64 C 183.66 122.36 183.31 123.17 182.80 123.81 C 182.28 124.44 181.62 125.42 181.00 125.43 Z M 282.35,156.85 C 281.67 157.24 280.74 157.32 279.92 157.41 C 279.10 157.49 278.15 157.57 277.42 157.36 C 276.68 157.14 275.72 156.71 275.49 156.10 C 275.26 155.49 275.78 154.46 276.03 153.67 C 276.28 152.88 276.67 152.13 276.97 151.35 C 277.28 150.57 277.57 149.79 277.88 149.01 C 278.19 148.24 278.52 147.47 278.83 146.69 C 279.15 145.92 279.44 145.13 279.75 144.36 C 280.06 143.58 280.39 142.81 280.69 142.03 C 281.00 141.26 281.30 140.48 281.59 139.69 C 281.87 138.91 282.12 138.11 282.41 137.32 C 282.69 136.54 283.00 135.76 283.30 134.98 C 283.61 134.20 283.94 133.44 284.24 132.66 C 284.53 131.87 284.80 131.08 285.07 130.29 C 285.34 129.50 285.60 128.71 285.86 127.91 C 286.13 127.12 286.39 126.33 286.66 125.53 C 286.92 124.74 287.18 123.95 287.45 123.16 C 287.71 122.36 287.98 121.57 288.24 120.78 C 288.51 119.98 288.77 119.19 289.03 118.40 C 289.30 117.61 289.56 116.81 289.83 116.02 C 290.09 115.23 290.36 114.44 290.61 113.64 C 290.85 112.84 291.08 112.04 291.31 111.23 C 291.53 110.43 291.73 109.61 291.96 108.81 C 292.18 108.00 292.45 107.21 292.68 106.41 C 292.92 105.61 293.15 104.80 293.37 104.00 C 293.58 103.19 293.78 102.38 293.98 101.57 C 294.19 100.76 294.39 99.94 294.59 99.13 C 294.79 98.32 295.00 97.51 295.20 96.70 C 295.40 95.89 295.60 95.08 295.81 94.27 C 296.01 93.46 296.22 92.65 296.42 91.84 C 296.62 91.03 296.82 90.22 297.00 89.40 C 297.19 88.58 297.34 87.76 297.51 86.94 C 297.68 86.13 297.84 85.31 298.00 84.49 C 298.17 83.67 298.33 82.85 298.50 82.03 C 298.66 81.21 298.79 80.38 299.01 79.58 C 299.24 78.77 299.35 77.75 299.85 77.22 C 300.34 76.69 301.23 76.42 301.98 76.41 C 302.73 76.41 303.61 76.87 304.36 77.21 C 305.11 77.55 306.07 77.85 306.49 78.46 C 306.91 79.07 306.87 80.05 306.86 80.86 C 306.85 81.67 306.59 82.51 306.43 83.33 C 306.28 84.15 306.10 84.97 305.91 85.78 C 305.73 86.60 305.52 87.41 305.32 88.22 C 305.12 89.03 304.91 89.84 304.71 90.65 C 304.51 91.46 304.31 92.27 304.10 93.09 C 303.90 93.90 303.70 94.71 303.50 95.52 C 303.29 96.33 303.09 97.14 302.89 97.95 C 302.68 98.76 302.48 99.57 302.28 100.38 C 302.08 101.19 301.88 102.00 301.67 102.81 C 301.46 103.62 301.26 104.43 301.03 105.24 C 300.80 106.04 300.54 106.84 300.30 107.64 C 300.07 108.44 299.84 109.24 299.62 110.05 C 299.39 110.85 299.20 111.67 298.97 112.47 C 298.73 113.27 298.47 114.07 298.21 114.86 C 297.95 115.66 297.68 116.45 297.42 117.24 C 297.16 118.03 296.89 118.83 296.63 119.62 C 296.36 120.41 296.10 121.20 295.83 122.00 C 295.57 122.79 295.31 123.58 295.04 124.38 C 294.78 125.17 294.51 125.96 294.25 126.75 C 293.98 127.55 293.72 128.34 293.46 129.13 C 293.19 129.93 292.93 130.72 292.66 131.51 C 292.40 132.30 292.13 133.10 291.87 133.89 C 291.61 134.68 291.34 135.48 291.08 136.27 C 290.81 137.06 290.55 137.85 290.28 138.65 C 290.02 139.44 289.76 140.23 289.47 141.02 C 289.18 141.80 288.87 142.58 288.56 143.35 C 288.25 144.13 287.93 144.90 287.64 145.68 C 287.34 146.47 287.09 147.26 286.81 148.05 C 286.53 148.84 286.25 149.63 285.95 150.41 C 285.65 151.18 285.32 151.95 284.99 152.72 C 284.67 153.49 284.45 154.34 284.01 155.03 C 283.57 155.72 283.03 156.45 282.35 156.85 Z M 138.69,184.05 C 137.89 184.15 136.91 184.11 136.22 183.75 C 135.53 183.40 135.01 182.60 134.56 181.91 C 134.11 181.22 133.87 180.38 133.54 179.60 C 133.22 178.82 132.91 178.04 132.60 177.26 C 132.29 176.47 131.98 175.69 131.67 174.91 C 131.36 174.12 131.02 173.35 130.73 172.56 C 130.43 171.77 130.17 170.97 129.89 170.18 C 129.61 169.38 129.33 168.59 129.03 167.80 C 128.73 167.02 128.38 166.25 128.07 165.46 C 127.77 164.68 127.48 163.88 127.20 163.09 C 126.92 162.30 126.67 161.49 126.40 160.69 C 126.13 159.90 125.87 159.10 125.60 158.30 C 125.33 157.50 125.07 156.70 124.80 155.90 C 124.53 155.10 124.27 154.30 124.00 153.50 C 123.73 152.70 123.47 151.90 123.20 151.10 C 122.94 150.31 122.66 149.51 122.41 148.70 C 122.16 147.90 121.93 147.09 121.70 146.28 C 121.48 145.47 121.28 144.65 121.05 143.84 C 120.82 143.03 120.56 142.23 120.32 141.42 C 120.08 140.61 119.85 139.80 119.63 138.99 C 119.40 138.18 119.20 137.36 118.97 136.55 C 118.74 135.74 118.47 134.94 118.23 134.13 C 118.00 133.32 117.75 132.52 117.56 131.70 C 117.37 130.88 117.01 129.99 117.09 129.22 C 117.18 128.45 117.51 127.54 118.07 127.07 C 118.64 126.60 119.67 126.53 120.49 126.40 C 121.32 126.27 122.32 126.01 123.00 126.29 C 123.68 126.58 124.19 127.42 124.57 128.13 C 124.94 128.84 125.04 129.74 125.26 130.56 C 125.48 131.37 125.67 132.19 125.88 133.01 C 126.08 133.83 126.29 134.64 126.49 135.46 C 126.69 136.28 126.90 137.09 127.10 137.91 C 127.31 138.73 127.51 139.55 127.73 140.36 C 127.95 141.17 128.20 141.98 128.43 142.79 C 128.67 143.59 128.93 144.40 129.16 145.21 C 129.39 146.02 129.57 146.84 129.80 147.65 C 130.03 148.46 130.28 149.27 130.53 150.07 C 130.78 150.87 131.06 151.67 131.32 152.47 C 131.59 153.27 131.86 154.07 132.12 154.87 C 132.39 155.67 132.65 156.47 132.92 157.26 C 133.20 158.06 133.46 158.86 133.76 159.65 C 134.06 160.44 134.40 161.21 134.70 161.99 C 135.01 162.78 135.32 163.56 135.60 164.35 C 135.89 165.15 136.14 165.95 136.43 166.74 C 136.72 167.53 137.03 168.32 137.33 169.10 C 137.64 169.88 137.97 170.66 138.29 171.44 C 138.60 172.22 138.89 173.01 139.21 173.79 C 139.52 174.58 139.85 175.35 140.17 176.13 C 140.48 176.92 140.80 177.70 141.08 178.49 C 141.35 179.28 141.86 180.12 141.84 180.89 C 141.83 181.66 141.53 182.59 141.01 183.12 C 140.48 183.65 139.48 183.94 138.69 184.05 Z M 223.61,175.13 C 222.80 175.32 221.93 175.39 221.10 175.41 C 220.26 175.43 219.37 175.44 218.58 175.24 C 217.78 175.04 216.93 174.72 216.31 174.21 C 215.68 173.69 215.29 172.87 214.82 172.17 C 214.35 171.47 213.95 170.72 213.50 170.01 C 213.04 169.30 212.57 168.60 212.10 167.90 C 211.63 167.20 211.16 166.50 210.70 165.79 C 210.23 165.09 209.76 164.39 209.29 163.69 C 208.82 162.99 208.35 162.29 207.85 161.61 C 207.35 160.93 206.81 160.28 206.31 159.60 C 205.81 158.92 205.33 158.22 204.86 157.53 C 204.38 156.83 203.92 156.13 203.45 155.42 C 202.98 154.72 202.52 154.02 202.04 153.32 C 201.57 152.63 201.05 151.95 200.59 151.25 C 200.13 150.54 199.50 149.87 199.27 149.10 C 199.04 148.33 199.03 147.41 199.20 146.62 C 199.37 145.82 199.89 145.08 200.29 144.34 C 200.70 143.60 201.16 142.89 201.61 142.18 C 202.07 141.48 202.42 140.44 203.02 140.09 C 203.63 139.74 204.60 139.74 205.24 140.06 C 205.87 140.38 206.33 141.34 206.83 142.02 C 207.33 142.69 207.78 143.42 208.25 144.12 C 208.72 144.82 209.18 145.52 209.65 146.22 C 210.12 146.93 210.58 147.63 211.05 148.33 C 211.52 149.03 211.99 149.73 212.46 150.44 C 212.93 151.14 213.40 151.84 213.86 152.54 C 214.33 153.24 214.80 153.94 215.26 154.65 C 215.72 155.36 216.17 156.08 216.60 156.80 C 217.03 157.52 217.43 158.27 217.87 158.99 C 218.31 159.71 218.78 160.41 219.24 161.11 C 219.71 161.82 220.19 162.51 220.64 163.23 C 221.08 163.94 221.51 164.67 221.94 165.39 C 222.37 166.12 222.79 166.85 223.23 167.57 C 223.67 168.29 224.13 169.00 224.56 169.73 C 224.98 170.45 225.56 171.19 225.79 171.94 C 226.02 172.68 226.31 173.68 225.94 174.21 C 225.58 174.74 224.42 174.93 223.61 175.13 Z M 316.94,238.82 C 316.19 238.69 315.41 238.13 314.90 237.53 C 314.39 236.94 314.06 236.03 313.86 235.25 C 313.67 234.47 313.43 233.48 313.75 232.84 C 314.07 232.20 315.07 231.82 315.79 231.42 C 316.52 231.02 317.34 230.77 318.11 230.46 C 318.89 230.14 319.67 229.83 320.45 229.52 C 321.22 229.21 322.00 228.90 322.78 228.59 C 323.55 228.27 324.34 227.98 325.11 227.64 C 325.87 227.31 326.62 226.93 327.37 226.56 C 328.13 226.19 328.87 225.81 329.62 225.44 C 330.37 225.06 331.13 224.70 331.87 224.31 C 332.61 223.91 333.34 223.52 334.06 223.08 C 334.78 222.65 335.47 222.18 336.17 221.72 C 336.87 221.26 337.57 220.79 338.26 220.32 C 338.95 219.85 339.66 219.40 340.32 218.89 C 340.99 218.38 341.61 217.82 342.25 217.27 C 342.89 216.73 343.53 216.20 344.14 215.62 C 344.75 215.05 345.34 214.45 345.89 213.82 C 346.45 213.20 346.99 212.55 347.47 211.87 C 347.96 211.19 348.43 210.49 348.82 209.75 C 349.22 209.02 349.60 208.25 349.84 207.46 C 350.07 206.66 350.25 205.81 350.24 204.99 C 350.24 204.16 350.07 203.31 349.83 202.52 C 349.59 201.73 349.21 200.96 348.81 200.22 C 348.41 199.49 347.95 198.78 347.44 198.12 C 346.93 197.46 346.34 196.86 345.75 196.27 C 345.16 195.67 344.55 195.08 343.89 194.57 C 343.24 194.06 342.51 193.62 341.80 193.18 C 341.09 192.74 340.36 192.33 339.64 191.91 C 338.92 191.48 338.23 191.00 337.49 190.61 C 336.75 190.22 335.97 189.91 335.20 189.58 C 334.43 189.25 333.64 188.97 332.87 188.63 C 332.10 188.30 331.36 187.91 330.59 187.58 C 329.82 187.24 329.05 186.92 328.26 186.62 C 327.48 186.32 326.68 186.06 325.89 185.80 C 325.09 185.54 324.30 185.28 323.49 185.04 C 322.69 184.81 321.87 184.61 321.07 184.39 C 320.26 184.16 319.45 183.93 318.65 183.70 C 317.84 183.47 317.05 183.20 316.24 182.99 C 315.43 182.79 314.60 182.64 313.78 182.46 C 312.96 182.28 312.14 182.12 311.32 181.94 C 310.51 181.75 309.70 181.54 308.88 181.35 C 308.07 181.16 307.25 180.96 306.43 180.78 C 305.61 180.61 304.79 180.47 303.97 180.30 C 303.14 180.14 302.33 179.96 301.50 179.81 C 300.68 179.67 299.85 179.57 299.02 179.43 C 298.19 179.30 297.37 179.15 296.54 179.01 C 295.72 178.87 294.89 178.73 294.06 178.61 C 293.23 178.50 292.39 178.45 291.56 178.34 C 290.73 178.22 289.91 178.05 289.08 177.92 C 288.26 177.80 287.43 177.67 286.60 177.58 C 285.76 177.50 284.92 177.48 284.09 177.39 C 283.26 177.29 282.43 177.14 281.61 177.02 C 280.78 176.90 279.95 176.73 279.12 176.64 C 278.29 176.56 277.45 176.54 276.61 176.52 C 275.78 176.49 274.94 176.51 274.10 176.48 C 273.26 176.45 272.42 176.42 271.59 176.33 C 270.76 176.23 269.94 176.05 269.11 175.93 C 268.28 175.81 267.45 175.67 266.62 175.60 C 265.79 175.53 264.95 175.53 264.11 175.51 C 263.27 175.49 262.43 175.50 261.60 175.50 C 260.76 175.50 259.92 175.50 259.08 175.50 C 258.25 175.50 257.41 175.50 256.57 175.50 C 255.73 175.49 254.89 175.51 254.06 175.48 C 253.22 175.45 252.38 175.41 251.55 175.32 C 250.72 175.23 249.90 175.04 249.07 174.92 C 248.24 174.80 247.41 174.67 246.58 174.60 C 245.75 174.53 244.91 174.53 244.07 174.51 C 243.23 174.49 242.39 174.51 241.56 174.49 C 240.72 174.48 239.87 174.52 239.04 174.41 C 238.22 174.30 237.31 174.22 236.61 173.83 C 235.91 173.45 235.36 172.74 234.84 172.09 C 234.32 171.45 233.91 170.70 233.49 169.97 C 233.07 169.25 232.48 168.51 232.34 167.75 C 232.20 166.99 232.20 165.93 232.64 165.41 C 233.08 164.89 234.16 164.76 234.96 164.61 C 235.77 164.46 236.64 164.53 237.47 164.51 C 238.31 164.49 239.15 164.50 239.99 164.50 C 240.83 164.50 241.66 164.50 242.50 164.50 C 243.34 164.50 244.18 164.50 245.01 164.50 C 245.85 164.50 246.69 164.50 247.53 164.50 C 248.36 164.50 249.20 164.50 250.04 164.50 C 250.88 164.50 251.72 164.50 252.55 164.50 C 253.39 164.50 254.23 164.50 255.07 164.50 C 255.90 164.50 256.74 164.50 257.58 164.50 C 258.42 164.50 259.25 164.50 260.09 164.50 C 260.93 164.50 261.77 164.50 262.61 164.50 C 263.44 164.50 264.28 164.50 265.12 164.50 C 265.96 164.50 266.79 164.50 267.63 164.50 C 268.47 164.50 269.31 164.49 270.14 164.51 C 270.98 164.53 271.82 164.53 272.66 164.60 C 273.49 164.67 274.32 164.81 275.15 164.94 C 275.97 165.06 276.79 165.24 277.63 165.33 C 278.46 165.42 279.30 165.45 280.13 165.48 C 280.97 165.51 281.81 165.49 282.65 165.50 C 283.48 165.50 284.32 165.50 285.16 165.50 C 286.00 165.51 286.84 165.50 287.67 165.55 C 288.51 165.59 289.34 165.67 290.17 165.77 C 291.00 165.88 291.82 166.09 292.65 166.20 C 293.48 166.31 294.31 166.39 295.15 166.45 C 295.98 166.51 296.83 166.49 297.66 166.54 C 298.50 166.60 299.33 166.66 300.16 166.77 C 300.99 166.88 301.81 167.08 302.64 167.20 C 303.47 167.32 304.30 167.39 305.14 167.47 C 305.97 167.56 306.81 167.59 307.64 167.70 C 308.47 167.80 309.29 167.98 310.11 168.12 C 310.94 168.26 311.77 168.38 312.60 168.51 C 313.42 168.65 314.25 168.78 315.08 168.92 C 315.90 169.06 316.72 169.23 317.55 169.36 C 318.38 169.50 319.21 169.59 320.04 169.73 C 320.86 169.87 321.68 170.05 322.50 170.21 C 323.32 170.37 324.15 170.52 324.97 170.69 C 325.79 170.86 326.61 171.05 327.42 171.24 C 328.24 171.43 329.05 171.64 329.86 171.84 C 330.67 172.04 331.49 172.24 332.30 172.45 C 333.11 172.67 333.92 172.88 334.72 173.11 C 335.53 173.34 336.32 173.61 337.13 173.85 C 337.93 174.08 338.74 174.28 339.55 174.53 C 340.35 174.77 341.15 175.01 341.94 175.30 C 342.73 175.58 343.49 175.92 344.28 176.21 C 345.06 176.51 345.86 176.77 346.65 177.05 C 347.44 177.33 348.23 177.59 349.01 177.90 C 349.79 178.21 350.55 178.56 351.31 178.92 C 352.07 179.28 352.82 179.65 353.55 180.05 C 354.29 180.45 355.00 180.88 355.72 181.33 C 356.43 181.77 357.12 182.25 357.81 182.71 C 358.51 183.17 359.21 183.63 359.90 184.11 C 360.59 184.59 361.29 185.06 361.93 185.59 C 362.58 186.12 363.19 186.70 363.78 187.29 C 364.37 187.89 364.95 188.50 365.47 189.15 C 366.00 189.80 366.48 190.49 366.93 191.19 C 367.38 191.90 367.81 192.62 368.16 193.38 C 368.50 194.14 368.77 194.95 368.98 195.75 C 369.18 196.56 369.31 197.40 369.38 198.23 C 369.46 199.06 369.47 199.91 369.44 200.74 C 369.40 201.58 369.34 202.42 369.16 203.24 C 368.99 204.05 368.70 204.85 368.39 205.62 C 368.08 206.40 367.69 207.14 367.30 207.88 C 366.90 208.62 366.51 209.37 366.04 210.06 C 365.57 210.75 365.01 211.38 364.46 212.01 C 363.90 212.63 363.29 213.21 362.70 213.80 C 362.11 214.40 361.51 214.99 360.92 215.58 C 360.33 216.17 359.74 216.77 359.14 217.35 C 358.54 217.94 357.95 218.54 357.32 219.08 C 356.68 219.62 356.00 220.12 355.32 220.60 C 354.64 221.09 353.93 221.54 353.24 222.01 C 352.54 222.48 351.85 222.95 351.14 223.40 C 350.44 223.85 349.72 224.28 349.00 224.71 C 348.28 225.15 347.55 225.55 346.83 225.98 C 346.11 226.41 345.42 226.89 344.70 227.31 C 343.97 227.73 343.23 228.11 342.49 228.50 C 341.74 228.89 340.99 229.25 340.24 229.63 C 339.49 230.00 338.75 230.39 337.99 230.75 C 337.24 231.11 336.48 231.48 335.71 231.81 C 334.94 232.14 334.15 232.42 333.38 232.74 C 332.60 233.06 331.84 233.39 331.07 233.73 C 330.30 234.07 329.56 234.45 328.79 234.78 C 328.02 235.11 327.23 235.40 326.45 235.71 C 325.67 236.02 324.90 236.35 324.12 236.66 C 323.34 236.96 322.57 237.27 321.78 237.56 C 320.99 237.84 320.20 238.14 319.39 238.35 C 318.59 238.56 317.68 238.96 316.94 238.82 Z M 155.66,181.14 C 154.82 181.24 153.95 181.40 153.13 181.29 C 152.31 181.18 151.39 180.95 150.76 180.47 C 150.13 179.99 149.70 179.15 149.33 178.40 C 148.96 177.66 148.42 176.69 148.55 175.99 C 148.67 175.30 149.42 174.65 150.08 174.25 C 150.75 173.85 151.71 173.79 152.54 173.60 C 153.36 173.40 154.20 173.26 155.04 173.10 C 155.87 172.94 156.70 172.78 157.54 172.64 C 158.37 172.50 159.22 172.40 160.06 172.27 C 160.89 172.13 161.72 171.94 162.56 171.81 C 163.40 171.68 164.24 171.60 165.08 171.49 C 165.92 171.38 166.77 171.29 167.61 171.16 C 168.44 171.04 169.27 170.84 170.11 170.72 C 170.95 170.60 171.80 170.54 172.64 170.43 C 173.48 170.32 174.32 170.19 175.16 170.06 C 176.00 169.93 176.83 169.76 177.67 169.66 C 178.51 169.56 179.36 169.53 180.21 169.45 C 181.05 169.36 181.89 169.26 182.73 169.14 C 183.57 169.02 184.40 168.82 185.24 168.71 C 186.08 168.60 186.93 168.56 187.77 168.48 C 188.62 168.40 189.46 168.33 190.30 168.21 C 191.14 168.09 191.97 167.89 192.81 167.78 C 193.65 167.67 194.50 167.59 195.34 167.55 C 196.19 167.51 197.04 167.50 197.89 167.53 C 198.73 167.56 199.61 167.55 200.42 167.74 C 201.24 167.93 202.09 168.19 202.77 168.66 C 203.45 169.12 203.97 169.86 204.48 170.52 C 205.00 171.19 205.61 171.91 205.87 172.65 C 206.13 173.39 206.41 174.44 206.04 174.96 C 205.66 175.48 204.45 175.53 203.64 175.75 C 202.82 175.96 201.98 176.11 201.14 176.23 C 200.30 176.35 199.45 176.41 198.61 176.45 C 197.76 176.50 196.91 176.49 196.06 176.50 C 195.21 176.51 194.36 176.50 193.52 176.54 C 192.67 176.58 191.82 176.64 190.98 176.75 C 190.14 176.86 189.31 177.06 188.47 177.18 C 187.63 177.30 186.79 177.39 185.94 177.45 C 185.10 177.51 184.25 177.49 183.40 177.54 C 182.55 177.59 181.71 177.66 180.87 177.77 C 180.03 177.88 179.20 178.08 178.36 178.20 C 177.52 178.31 176.67 178.39 175.83 178.46 C 174.98 178.53 174.13 178.52 173.29 178.60 C 172.44 178.69 171.61 178.83 170.77 178.95 C 169.93 179.08 169.10 179.25 168.26 179.36 C 167.42 179.48 166.57 179.53 165.73 179.64 C 164.89 179.76 164.05 179.92 163.22 180.05 C 162.38 180.18 161.54 180.32 160.70 180.43 C 159.86 180.54 159.01 180.59 158.17 180.71 C 157.33 180.83 156.50 181.05 155.66 181.14 Z M 158.65,264.15 C 157.83 264.27 157.00 264.37 156.16 264.43 C 155.33 264.49 154.49 264.48 153.66 264.49 C 152.82 264.50 151.99 264.50 151.15 264.49 C 150.32 264.48 149.48 264.48 148.65 264.42 C 147.82 264.35 146.99 264.24 146.16 264.12 C 145.34 264.00 144.52 263.80 143.69 263.70 C 142.86 263.61 142.03 263.57 141.19 263.53 C 140.36 263.50 139.52 263.51 138.69 263.50 C 137.85 263.50 137.02 263.50 136.18 263.50 C 135.35 263.50 134.51 263.50 133.68 263.50 C 132.84 263.50 132.01 263.50 131.17 263.50 C 130.33 263.50 129.50 263.50 128.66 263.50 C 127.83 263.49 126.99 263.51 126.16 263.48 C 125.32 263.45 124.49 263.42 123.66 263.33 C 122.83 263.24 122.01 263.06 121.18 262.94 C 120.36 262.82 119.53 262.68 118.70 262.61 C 117.87 262.53 117.03 262.53 116.20 262.51 C 115.36 262.49 114.53 262.50 113.69 262.47 C 112.86 262.43 112.02 262.38 111.20 262.28 C 110.37 262.18 109.55 261.98 108.73 261.86 C 107.90 261.74 107.07 261.64 106.24 261.56 C 105.41 261.47 104.57 261.45 103.74 261.35 C 102.91 261.25 102.09 261.08 101.27 260.96 C 100.44 260.83 99.62 260.69 98.79 260.58 C 97.96 260.47 97.13 260.42 96.30 260.31 C 95.48 260.19 94.66 260.01 93.83 259.87 C 93.01 259.73 92.18 259.61 91.36 259.48 C 90.53 259.35 89.71 259.22 88.89 259.07 C 88.06 258.93 87.24 258.77 86.42 258.63 C 85.60 258.50 84.76 258.41 83.94 258.26 C 83.12 258.11 82.31 257.92 81.49 257.74 C 80.68 257.55 79.87 257.34 79.06 257.14 C 78.25 256.94 77.44 256.73 76.63 256.53 C 75.82 256.33 75.01 256.13 74.20 255.92 C 73.39 255.72 72.57 255.53 71.77 255.31 C 70.96 255.09 70.16 254.85 69.36 254.61 C 68.57 254.36 67.78 254.09 66.98 253.83 C 66.19 253.56 65.40 253.30 64.60 253.03 C 63.81 252.77 63.02 252.51 62.23 252.24 C 61.44 251.97 60.64 251.72 59.86 251.43 C 59.08 251.13 58.30 250.82 57.54 250.48 C 56.78 250.14 56.03 249.76 55.28 249.39 C 54.53 249.02 53.78 248.65 53.05 248.26 C 52.31 247.87 51.57 247.47 50.86 247.04 C 50.15 246.60 49.45 246.14 48.77 245.66 C 48.08 245.19 47.41 244.69 46.74 244.19 C 46.07 243.69 45.40 243.19 44.75 242.67 C 44.09 242.15 43.40 241.67 42.82 241.08 C 42.24 240.49 41.75 239.79 41.26 239.12 C 40.77 238.44 40.32 237.74 39.89 237.02 C 39.47 236.30 39.04 235.58 38.70 234.82 C 38.37 234.05 38.07 233.26 37.88 232.45 C 37.69 231.65 37.62 230.80 37.57 229.97 C 37.52 229.14 37.54 228.30 37.60 227.47 C 37.67 226.64 37.78 225.80 37.96 224.99 C 38.14 224.18 38.39 223.37 38.69 222.59 C 38.98 221.82 39.32 221.04 39.73 220.32 C 40.15 219.60 40.69 218.95 41.18 218.28 C 41.67 217.60 42.16 216.93 42.67 216.27 C 43.18 215.61 43.69 214.94 44.24 214.32 C 44.80 213.69 45.39 213.10 46.00 212.53 C 46.62 211.97 47.27 211.44 47.92 210.92 C 48.58 210.41 49.27 209.94 49.94 209.44 C 50.61 208.94 51.25 208.41 51.93 207.92 C 52.61 207.43 53.31 206.97 54.00 206.50 C 54.69 206.03 55.39 205.57 56.08 205.11 C 56.78 204.66 57.48 204.19 58.19 203.76 C 58.90 203.32 59.65 202.93 60.36 202.51 C 61.08 202.08 61.78 201.62 62.49 201.19 C 63.21 200.76 63.93 200.34 64.66 199.94 C 65.40 199.54 66.15 199.18 66.90 198.80 C 67.64 198.43 68.39 198.05 69.15 197.70 C 69.91 197.35 70.68 197.03 71.45 196.71 C 72.22 196.39 73.01 196.11 73.78 195.78 C 74.55 195.46 75.29 195.08 76.05 194.74 C 76.82 194.40 77.58 194.07 78.36 193.75 C 79.13 193.43 79.91 193.15 80.69 192.84 C 81.46 192.53 82.23 192.19 83.01 191.89 C 83.79 191.59 84.58 191.32 85.37 191.05 C 86.16 190.77 86.95 190.51 87.73 190.21 C 88.51 189.92 89.28 189.58 90.05 189.27 C 90.83 188.97 91.61 188.66 92.40 188.38 C 93.18 188.10 93.98 187.84 94.77 187.58 C 95.57 187.33 96.36 187.08 97.17 186.85 C 97.97 186.63 98.79 186.44 99.59 186.21 C 100.39 185.99 101.19 185.74 101.99 185.49 C 102.79 185.24 103.58 184.97 104.37 184.71 C 105.17 184.46 105.96 184.20 106.76 183.97 C 107.57 183.74 108.38 183.54 109.19 183.33 C 110.00 183.12 110.81 182.92 111.62 182.72 C 112.43 182.51 113.24 182.31 114.04 182.09 C 114.85 181.86 115.64 181.60 116.44 181.36 C 117.24 181.13 118.04 180.88 118.85 180.67 C 119.66 180.46 120.47 180.21 121.29 180.10 C 122.11 179.99 123.03 179.78 123.77 179.99 C 124.52 180.21 125.26 180.80 125.77 181.41 C 126.27 182.02 126.71 182.90 126.81 183.67 C 126.90 184.44 126.79 185.44 126.35 186.03 C 125.92 186.63 124.96 186.94 124.20 187.26 C 123.44 187.57 122.59 187.71 121.79 187.93 C 120.98 188.14 120.17 188.33 119.35 188.54 C 118.54 188.74 117.73 188.94 116.92 189.15 C 116.11 189.35 115.30 189.55 114.49 189.75 C 113.68 189.95 112.87 190.15 112.06 190.36 C 111.25 190.57 110.44 190.77 109.64 191.00 C 108.84 191.24 108.04 191.50 107.25 191.75 C 106.45 192.01 105.66 192.28 104.87 192.54 C 104.08 192.81 103.29 193.07 102.49 193.34 C 101.70 193.60 100.91 193.86 100.12 194.13 C 99.33 194.39 98.53 194.66 97.74 194.92 C 96.95 195.18 96.15 195.45 95.36 195.71 C 94.57 195.98 93.78 196.24 92.99 196.52 C 92.21 196.81 91.43 197.13 90.66 197.43 C 89.88 197.74 89.11 198.06 88.33 198.37 C 87.56 198.68 86.78 198.98 86.00 199.29 C 85.23 199.60 84.46 199.93 83.68 200.24 C 82.91 200.55 82.12 200.83 81.35 201.16 C 80.59 201.49 79.83 201.85 79.08 202.21 C 78.33 202.58 77.58 202.95 76.84 203.33 C 76.10 203.72 75.35 204.09 74.63 204.51 C 73.90 204.92 73.21 205.39 72.49 205.82 C 71.78 206.25 71.05 206.66 70.34 207.10 C 69.63 207.54 68.91 207.97 68.23 208.45 C 67.55 208.93 66.90 209.47 66.24 209.97 C 65.57 210.47 64.87 210.93 64.23 211.46 C 63.58 211.99 62.96 212.56 62.37 213.15 C 61.78 213.73 61.19 214.34 60.66 214.98 C 60.13 215.62 59.64 216.31 59.19 217.00 C 58.74 217.70 58.29 218.42 57.94 219.18 C 57.60 219.93 57.28 220.72 57.09 221.53 C 56.91 222.33 56.81 223.19 56.86 224.01 C 56.91 224.83 57.13 225.67 57.39 226.45 C 57.65 227.24 58.02 228.00 58.42 228.73 C 58.82 229.47 59.27 230.18 59.77 230.84 C 60.28 231.50 60.85 232.13 61.47 232.68 C 62.08 233.23 62.81 233.68 63.49 234.15 C 64.17 234.63 64.88 235.09 65.57 235.55 C 66.27 236.01 66.96 236.49 67.67 236.92 C 68.38 237.35 69.11 237.77 69.85 238.14 C 70.60 238.52 71.37 238.84 72.14 239.16 C 72.91 239.49 73.70 239.77 74.48 240.08 C 75.25 240.39 76.01 240.73 76.79 241.03 C 77.57 241.33 78.36 241.60 79.15 241.88 C 79.94 242.15 80.73 242.41 81.53 242.68 C 82.32 242.94 83.11 243.20 83.90 243.47 C 84.70 243.73 85.49 244.00 86.28 244.26 C 87.08 244.51 87.87 244.77 88.67 245.01 C 89.47 245.24 90.29 245.44 91.09 245.64 C 91.90 245.85 92.71 246.06 93.52 246.26 C 94.34 246.46 95.15 246.66 95.96 246.85 C 96.77 247.04 97.59 247.22 98.41 247.39 C 99.22 247.55 100.05 247.71 100.87 247.86 C 101.69 248.02 102.50 248.19 103.33 248.33 C 104.15 248.47 104.98 248.55 105.81 248.69 C 106.63 248.83 107.45 249.01 108.27 249.15 C 109.09 249.29 109.92 249.40 110.75 249.53 C 111.57 249.67 112.39 249.81 113.22 249.94 C 114.04 250.08 114.86 250.24 115.69 250.35 C 116.52 250.47 117.35 250.52 118.18 250.63 C 119.01 250.74 119.83 250.90 120.65 251.03 C 121.48 251.15 122.30 251.30 123.13 251.38 C 123.96 251.46 124.80 251.46 125.64 251.50 C 126.47 251.55 127.31 251.56 128.14 251.64 C 128.97 251.73 129.79 251.90 130.61 252.02 C 131.44 252.14 132.26 252.30 133.09 252.38 C 133.92 252.46 134.76 252.46 135.59 252.48 C 136.43 252.51 137.27 252.49 138.10 252.50 C 138.94 252.51 139.77 252.50 140.61 252.55 C 141.44 252.59 142.27 252.66 143.10 252.76 C 143.93 252.87 144.74 253.07 145.57 253.19 C 146.40 253.30 147.23 253.39 148.06 253.44 C 148.89 253.49 149.73 253.48 150.57 253.49 C 151.40 253.50 152.24 253.50 153.07 253.50 C 153.91 253.51 154.74 253.49 155.58 253.53 C 156.41 253.56 157.28 253.53 158.07 253.74 C 158.86 253.95 159.68 254.27 160.32 254.76 C 160.96 255.26 161.44 256.00 161.91 256.69 C 162.39 257.37 162.78 258.12 163.16 258.86 C 163.55 259.60 164.16 260.41 164.22 261.13 C 164.29 261.85 164.08 262.75 163.56 263.18 C 163.05 263.61 161.93 263.53 161.12 263.70 C 160.30 263.86 159.48 264.03 158.65 264.15 Z M 278.66,250.13 C 277.80 250.24 276.87 250.41 276.05 250.24 C 275.23 250.07 274.33 249.70 273.74 249.14 C 273.16 248.57 272.72 247.64 272.53 246.85 C 272.34 246.05 272.23 244.96 272.63 244.35 C 273.02 243.73 274.12 243.49 274.92 243.18 C 275.72 242.87 276.61 242.73 277.45 242.51 C 278.30 242.30 279.14 242.09 280.00 241.91 C 280.85 241.72 281.71 241.57 282.56 241.39 C 283.42 241.21 284.27 241.03 285.12 240.83 C 285.97 240.63 286.81 240.41 287.66 240.20 C 288.50 239.98 289.41 239.50 290.19 239.55 C 290.97 239.60 291.85 239.93 292.35 240.50 C 292.84 241.08 292.98 242.15 293.16 242.99 C 293.34 243.83 293.74 244.89 293.44 245.55 C 293.14 246.21 292.12 246.62 291.35 246.97 C 290.58 247.32 289.67 247.44 288.83 247.66 C 287.98 247.89 287.14 248.09 286.29 248.30 C 285.44 248.52 284.60 248.73 283.75 248.94 C 282.90 249.15 282.06 249.37 281.21 249.57 C 280.36 249.77 279.52 250.02 278.66 250.13 Z M 278.63,372.13 C 277.81 372.30 276.97 372.37 276.14 372.43 C 275.31 372.48 274.47 372.48 273.63 372.46 C 272.80 372.43 271.96 372.39 271.14 372.26 C 270.31 372.13 269.50 371.93 268.70 371.69 C 267.90 371.45 267.11 371.15 266.34 370.83 C 265.57 370.51 264.82 370.14 264.07 369.78 C 263.32 369.42 262.57 369.04 261.82 368.66 C 261.08 368.29 260.33 367.92 259.58 367.54 C 258.84 367.15 258.10 366.77 257.38 366.35 C 256.66 365.93 255.96 365.47 255.26 365.00 C 254.57 364.53 253.89 364.05 253.22 363.55 C 252.54 363.06 251.90 362.53 251.23 362.03 C 250.56 361.52 249.86 361.06 249.22 360.53 C 248.57 360.00 247.97 359.42 247.36 358.85 C 246.75 358.28 246.18 357.67 245.55 357.12 C 244.92 356.57 244.24 356.08 243.58 355.56 C 242.93 355.04 242.24 354.56 241.61 354.02 C 240.98 353.47 240.39 352.87 239.79 352.29 C 239.20 351.71 238.61 351.11 238.02 350.52 C 237.43 349.93 236.84 349.34 236.25 348.75 C 235.66 348.16 235.06 347.57 234.47 346.97 C 233.89 346.38 233.28 345.80 232.71 345.19 C 232.15 344.57 231.60 343.94 231.08 343.29 C 230.56 342.64 230.11 341.93 229.58 341.28 C 229.05 340.63 228.48 340.02 227.91 339.42 C 227.33 338.81 226.72 338.24 226.14 337.63 C 225.57 337.03 224.99 336.42 224.46 335.78 C 223.93 335.13 223.48 334.42 222.96 333.77 C 222.44 333.12 221.89 332.49 221.34 331.86 C 220.79 331.23 220.18 330.65 219.65 330.01 C 219.12 329.36 218.65 328.66 218.14 328.01 C 217.62 327.35 217.09 326.71 216.56 326.06 C 216.03 325.42 215.48 324.79 214.96 324.13 C 214.45 323.47 213.98 322.78 213.48 322.11 C 212.97 321.44 212.45 320.79 211.95 320.12 C 211.45 319.45 210.97 318.77 210.47 318.10 C 209.97 317.43 209.42 316.79 208.95 316.11 C 208.47 315.42 207.88 314.74 207.63 313.98 C 207.37 313.22 207.24 312.32 207.40 311.56 C 207.57 310.79 208.17 310.07 208.62 309.37 C 209.07 308.67 209.60 308.02 210.11 307.36 C 210.62 306.70 211.05 305.83 211.67 305.39 C 212.29 304.96 213.18 304.56 213.85 304.73 C 214.52 304.91 215.12 305.80 215.68 306.42 C 216.24 307.03 216.66 307.77 217.18 308.42 C 217.71 309.07 218.27 309.69 218.83 310.32 C 219.38 310.94 219.97 311.53 220.50 312.18 C 221.03 312.82 221.48 313.53 222.00 314.19 C 222.52 314.84 223.06 315.48 223.63 316.10 C 224.19 316.71 224.80 317.28 225.38 317.88 C 225.96 318.49 226.56 319.07 227.10 319.71 C 227.65 320.34 228.12 321.03 228.64 321.69 C 229.15 322.34 229.65 323.02 230.21 323.64 C 230.76 324.27 231.36 324.85 231.95 325.45 C 232.53 326.04 233.13 326.63 233.72 327.22 C 234.31 327.81 234.90 328.40 235.49 328.99 C 236.08 329.58 236.67 330.17 237.26 330.76 C 237.85 331.35 238.45 331.95 239.04 332.54 C 239.63 333.13 240.21 333.72 240.81 334.31 C 241.41 334.89 241.99 335.49 242.63 336.04 C 243.26 336.58 243.95 337.06 244.60 337.58 C 245.26 338.09 245.93 338.59 246.57 339.13 C 247.20 339.68 247.77 340.29 248.40 340.84 C 249.04 341.38 249.70 341.89 250.36 342.40 C 251.03 342.91 251.70 343.40 252.37 343.90 C 253.04 344.40 253.70 344.92 254.38 345.40 C 255.06 345.88 255.76 346.35 256.47 346.79 C 257.18 347.23 257.90 347.65 258.63 348.05 C 259.37 348.45 260.12 348.81 260.87 349.18 C 261.62 349.56 262.36 349.94 263.12 350.29 C 263.88 350.63 264.64 350.98 265.43 351.26 C 266.21 351.55 267.01 351.82 267.82 352.00 C 268.63 352.18 269.47 352.32 270.30 352.36 C 271.13 352.40 271.98 352.39 272.80 352.24 C 273.61 352.10 274.44 351.86 275.18 351.50 C 275.93 351.15 276.63 350.65 277.25 350.10 C 277.87 349.56 278.44 348.91 278.91 348.23 C 279.37 347.54 279.72 346.76 280.02 345.99 C 280.32 345.21 280.51 344.39 280.71 343.58 C 280.91 342.77 281.10 341.95 281.23 341.13 C 281.35 340.30 281.41 339.47 281.45 338.63 C 281.50 337.80 281.49 336.96 281.50 336.13 C 281.50 335.29 281.50 334.45 281.50 333.62 C 281.50 332.78 281.50 331.95 281.50 331.11 C 281.49 330.28 281.50 329.44 281.46 328.61 C 281.42 327.77 281.37 326.94 281.27 326.11 C 281.17 325.28 280.97 324.46 280.84 323.64 C 280.72 322.81 280.62 321.98 280.52 321.15 C 280.41 320.32 280.34 319.49 280.21 318.67 C 280.07 317.84 279.89 317.02 279.73 316.20 C 279.57 315.38 279.43 314.56 279.25 313.74 C 279.08 312.93 278.89 312.11 278.69 311.30 C 278.50 310.49 278.29 309.68 278.09 308.87 C 277.89 308.05 277.69 307.24 277.48 306.43 C 277.28 305.62 277.08 304.81 276.87 304.00 C 276.67 303.19 276.48 302.38 276.25 301.57 C 276.03 300.77 275.79 299.97 275.55 299.17 C 275.31 298.37 275.06 297.57 274.83 296.76 C 274.61 295.96 274.42 295.14 274.19 294.34 C 273.97 293.54 273.72 292.74 273.47 291.94 C 273.22 291.14 272.95 290.35 272.69 289.56 C 272.42 288.77 272.16 287.97 271.89 287.18 C 271.63 286.39 271.37 285.59 271.10 284.80 C 270.83 284.01 270.57 283.22 270.27 282.44 C 269.98 281.65 269.64 280.89 269.34 280.11 C 269.03 279.33 268.73 278.56 268.44 277.77 C 268.15 276.99 267.91 276.19 267.62 275.40 C 267.34 274.62 267.04 273.84 266.73 273.06 C 266.42 272.28 266.09 271.51 265.78 270.74 C 265.47 269.96 265.18 269.18 264.87 268.40 C 264.56 267.63 264.23 266.86 263.92 266.08 C 263.61 265.31 263.32 264.52 263.01 263.75 C 262.70 262.97 262.37 262.20 262.06 261.43 C 261.75 260.65 261.46 259.86 261.15 259.09 C 260.83 258.32 260.48 257.56 260.14 256.80 C 259.80 256.03 259.43 255.28 259.10 254.51 C 258.78 253.75 258.50 252.96 258.18 252.18 C 257.86 251.41 257.45 250.66 257.19 249.88 C 256.94 249.10 256.37 248.08 256.63 247.50 C 256.90 246.91 258.00 246.64 258.77 246.39 C 259.54 246.14 260.44 245.95 261.24 246.00 C 262.04 246.06 262.95 246.26 263.58 246.72 C 264.20 247.18 264.59 248.04 264.98 248.77 C 265.37 249.50 265.61 250.32 265.92 251.09 C 266.24 251.87 266.57 252.64 266.88 253.41 C 267.19 254.19 267.47 254.97 267.79 255.75 C 268.11 256.52 268.45 257.28 268.79 258.05 C 269.13 258.81 269.51 259.56 269.83 260.33 C 270.15 261.10 270.43 261.88 270.71 262.67 C 271.00 263.46 271.25 264.26 271.54 265.04 C 271.82 265.82 272.14 266.60 272.45 267.37 C 272.75 268.15 273.08 268.92 273.37 269.70 C 273.66 270.49 273.91 271.28 274.20 272.07 C 274.48 272.86 274.76 273.65 275.06 274.42 C 275.36 275.20 275.71 275.97 276.01 276.75 C 276.31 277.52 276.59 278.31 276.86 279.10 C 277.14 279.89 277.39 280.69 277.66 281.48 C 277.92 282.27 278.19 283.06 278.45 283.86 C 278.72 284.65 278.98 285.44 279.25 286.24 C 279.51 287.03 279.77 287.82 280.04 288.61 C 280.30 289.41 280.57 290.20 280.83 290.99 C 281.09 291.79 281.36 292.58 281.61 293.37 C 281.86 294.17 282.09 294.98 282.31 295.78 C 282.54 296.59 282.73 297.40 282.96 298.20 C 283.19 299.01 283.45 299.80 283.69 300.60 C 283.92 301.40 284.15 302.21 284.37 303.01 C 284.59 303.82 284.78 304.63 284.99 305.44 C 285.19 306.25 285.39 307.07 285.59 307.88 C 285.80 308.69 286.00 309.50 286.20 310.31 C 286.41 311.12 286.61 311.93 286.81 312.74 C 287.01 313.55 287.22 314.36 287.42 315.17 C 287.62 315.98 287.82 316.79 288.01 317.61 C 288.19 318.42 288.35 319.25 288.51 320.06 C 288.68 320.88 288.84 321.70 289.00 322.52 C 289.15 323.35 289.29 324.17 289.43 324.99 C 289.56 325.82 289.67 326.65 289.80 327.47 C 289.94 328.30 290.13 329.11 290.25 329.94 C 290.36 330.77 290.41 331.60 290.50 332.43 C 290.58 333.26 290.62 334.10 290.73 334.93 C 290.84 335.76 291.04 336.57 291.16 337.40 C 291.28 338.22 291.38 339.06 291.43 339.89 C 291.49 340.72 291.48 341.56 291.49 342.39 C 291.50 343.23 291.50 344.07 291.50 344.90 C 291.50 345.74 291.50 346.57 291.50 347.41 C 291.49 348.24 291.51 349.08 291.48 349.92 C 291.45 350.75 291.42 351.59 291.32 352.42 C 291.23 353.25 291.06 354.07 290.91 354.89 C 290.76 355.71 290.61 356.53 290.43 357.35 C 290.25 358.16 290.08 358.98 289.85 359.79 C 289.62 360.59 289.35 361.38 289.04 362.16 C 288.73 362.93 288.39 363.70 288.00 364.44 C 287.60 365.17 287.17 365.90 286.68 366.57 C 286.18 367.23 285.61 367.85 285.03 368.45 C 284.45 369.05 283.85 369.65 283.18 370.14 C 282.51 370.63 281.78 371.06 281.02 371.39 C 280.26 371.72 279.44 371.95 278.63 372.13 Z M 199.66,262.15 C 198.82 262.26 197.98 262.39 197.15 262.37 C 196.32 262.35 195.41 262.31 194.67 262.01 C 193.92 261.70 193.23 261.14 192.65 260.55 C 192.07 259.97 191.64 259.21 191.19 258.50 C 190.74 257.79 190.16 257.04 189.97 256.29 C 189.78 255.55 189.62 254.48 190.05 254.02 C 190.47 253.56 191.67 253.64 192.50 253.54 C 193.33 253.43 194.18 253.46 195.02 253.37 C 195.85 253.28 196.68 253.12 197.51 253.00 C 198.34 252.87 199.17 252.71 200.00 252.63 C 200.84 252.55 201.68 252.54 202.52 252.52 C 203.36 252.49 204.20 252.51 205.04 252.50 C 205.88 252.49 206.72 252.51 207.56 252.48 C 208.40 252.46 209.25 252.44 210.08 252.36 C 210.92 252.28 211.74 252.11 212.57 251.99 C 213.41 251.86 214.23 251.70 215.07 251.62 C 215.90 251.54 216.75 251.54 217.59 251.51 C 218.43 251.48 219.27 251.49 220.11 251.43 C 220.94 251.37 221.78 251.28 222.61 251.16 C 223.44 251.04 224.26 250.84 225.10 250.73 C 225.93 250.63 226.77 250.58 227.61 250.52 C 228.45 250.46 229.29 250.45 230.12 250.36 C 230.96 250.27 231.78 250.10 232.62 249.98 C 233.45 249.85 234.27 249.70 235.11 249.61 C 235.94 249.51 236.79 249.50 237.62 249.41 C 238.46 249.32 239.29 249.19 240.12 249.07 C 240.95 248.95 241.77 248.75 242.61 248.68 C 243.44 248.61 244.30 248.53 245.13 248.63 C 245.95 248.73 246.86 248.85 247.54 249.26 C 248.22 249.68 248.77 250.41 249.23 251.09 C 249.69 251.78 250.25 252.64 250.30 253.37 C 250.35 254.10 250.06 255.00 249.53 255.48 C 249.01 255.95 247.95 256.04 247.14 256.23 C 246.32 256.42 245.48 256.48 244.65 256.62 C 243.82 256.76 242.99 256.93 242.17 257.06 C 241.34 257.19 240.51 257.32 239.67 257.43 C 238.84 257.54 238.00 257.59 237.17 257.71 C 236.34 257.83 235.51 258.02 234.68 258.15 C 233.85 258.28 233.02 258.37 232.19 258.48 C 231.35 258.59 230.51 258.67 229.68 258.79 C 228.85 258.91 228.03 259.11 227.20 259.22 C 226.37 259.34 225.53 259.40 224.69 259.49 C 223.86 259.57 223.02 259.61 222.18 259.72 C 221.35 259.83 220.53 260.03 219.70 260.15 C 218.87 260.27 218.03 260.36 217.19 260.43 C 216.36 260.51 215.51 260.50 214.68 260.57 C 213.84 260.65 213.01 260.76 212.18 260.88 C 211.34 261.00 210.52 261.20 209.69 261.30 C 208.86 261.39 208.01 261.43 207.18 261.47 C 206.34 261.51 205.49 261.49 204.65 261.53 C 203.82 261.58 202.97 261.62 202.14 261.73 C 201.31 261.83 200.49 262.04 199.66 262.15 Z M 189.83,286.61 C 189.17 286.64 188.36 285.87 187.79 285.30 C 187.21 284.72 186.84 283.90 186.39 283.18 C 185.95 282.47 185.56 281.71 185.12 280.99 C 184.68 280.27 184.20 279.57 183.74 278.87 C 183.28 278.16 182.80 277.47 182.35 276.75 C 181.90 276.04 181.48 275.31 181.05 274.58 C 180.61 273.86 180.19 273.12 179.75 272.40 C 179.32 271.68 178.86 270.97 178.43 270.25 C 177.99 269.52 177.59 268.78 177.16 268.05 C 176.72 267.33 176.24 266.63 175.82 265.90 C 175.39 265.18 175.00 264.43 174.60 263.69 C 174.19 262.94 173.82 262.19 173.39 261.46 C 172.97 260.73 172.49 260.03 172.06 259.30 C 171.64 258.57 171.11 257.85 170.85 257.08 C 170.58 256.31 170.16 255.23 170.47 254.66 C 170.77 254.09 171.88 253.82 172.66 253.64 C 173.45 253.45 174.35 253.52 175.19 253.55 C 176.03 253.57 176.93 253.56 177.71 253.80 C 178.49 254.05 179.29 254.46 179.89 255.01 C 180.50 255.55 180.86 256.38 181.33 257.09 C 181.79 257.79 182.21 258.53 182.67 259.24 C 183.12 259.95 183.60 260.64 184.06 261.35 C 184.52 262.06 184.98 262.77 185.42 263.49 C 185.85 264.21 186.24 264.96 186.68 265.68 C 187.12 266.40 187.59 267.11 188.05 267.82 C 188.51 268.52 188.98 269.22 189.45 269.93 C 189.92 270.63 190.39 271.33 190.85 272.03 C 191.32 272.74 191.80 273.44 192.26 274.14 C 192.73 274.85 193.23 275.53 193.65 276.26 C 194.07 276.99 194.59 277.73 194.77 278.52 C 194.95 279.31 194.98 280.24 194.75 281.01 C 194.52 281.77 193.88 282.44 193.38 283.12 C 192.88 283.79 192.36 284.49 191.77 285.07 C 191.18 285.65 190.49 286.57 189.83 286.61 Z M 145.65,353.14 C 144.82 353.27 143.98 353.38 143.15 353.38 C 142.31 353.39 141.47 353.31 140.64 353.17 C 139.82 353.03 139.01 352.80 138.21 352.53 C 137.42 352.27 136.63 351.96 135.88 351.59 C 135.14 351.21 134.42 350.76 133.73 350.30 C 133.03 349.83 132.32 349.36 131.72 348.78 C 131.12 348.21 130.60 347.53 130.10 346.86 C 129.61 346.19 129.15 345.48 128.73 344.76 C 128.31 344.03 127.91 343.29 127.56 342.53 C 127.20 341.77 126.89 340.99 126.60 340.20 C 126.32 339.42 126.08 338.61 125.85 337.81 C 125.62 337.00 125.42 336.18 125.23 335.37 C 125.04 334.55 124.86 333.73 124.73 332.90 C 124.61 332.07 124.58 331.23 124.49 330.40 C 124.41 329.56 124.35 328.73 124.24 327.90 C 124.13 327.07 123.92 326.25 123.81 325.42 C 123.70 324.59 123.61 323.75 123.56 322.92 C 123.51 322.08 123.51 321.24 123.51 320.40 C 123.50 319.56 123.49 318.72 123.51 317.89 C 123.53 317.05 123.53 316.21 123.60 315.37 C 123.67 314.54 123.81 313.71 123.93 312.88 C 124.05 312.05 124.24 311.23 124.33 310.40 C 124.42 309.56 124.44 308.72 124.48 307.89 C 124.52 307.05 124.50 306.21 124.54 305.37 C 124.59 304.54 124.66 303.70 124.77 302.87 C 124.88 302.04 125.08 301.22 125.20 300.39 C 125.32 299.56 125.40 298.73 125.51 297.89 C 125.62 297.06 125.70 296.23 125.84 295.40 C 125.97 294.57 126.16 293.75 126.32 292.93 C 126.48 292.11 126.63 291.28 126.80 290.46 C 126.96 289.64 127.15 288.82 127.31 288.00 C 127.47 287.18 127.62 286.35 127.78 285.53 C 127.95 284.71 128.13 283.89 128.30 283.06 C 128.46 282.24 128.60 281.42 128.78 280.60 C 128.95 279.78 129.15 278.96 129.34 278.15 C 129.54 277.33 129.72 276.51 129.96 275.71 C 130.20 274.90 130.34 273.98 130.79 273.34 C 131.25 272.69 131.98 272.12 132.72 271.84 C 133.46 271.56 134.42 271.54 135.21 271.66 C 136.01 271.78 137.03 272.00 137.50 272.55 C 137.97 273.09 138.02 274.11 138.03 274.91 C 138.03 275.72 137.71 276.56 137.53 277.38 C 137.35 278.20 137.13 279.01 136.95 279.82 C 136.77 280.64 136.61 281.47 136.45 282.29 C 136.28 283.11 136.11 283.93 135.96 284.76 C 135.80 285.58 135.67 286.41 135.54 287.24 C 135.40 288.07 135.29 288.90 135.15 289.72 C 135.01 290.55 134.82 291.37 134.72 292.20 C 134.61 293.03 134.58 293.87 134.51 294.71 C 134.45 295.54 134.44 296.38 134.35 297.22 C 134.26 298.05 134.09 298.87 133.96 299.70 C 133.84 300.53 133.69 301.36 133.61 302.19 C 133.54 303.03 133.53 303.87 133.51 304.71 C 133.49 305.54 133.50 306.38 133.50 307.22 C 133.50 308.06 133.49 308.90 133.51 309.74 C 133.52 310.57 133.52 311.42 133.58 312.25 C 133.64 313.09 133.74 313.92 133.87 314.75 C 134.00 315.58 134.19 316.39 134.35 317.22 C 134.52 318.04 134.65 318.87 134.85 319.68 C 135.06 320.49 135.29 321.30 135.57 322.09 C 135.84 322.88 136.15 323.67 136.51 324.42 C 136.86 325.18 137.23 325.95 137.70 326.64 C 138.17 327.32 138.71 327.99 139.33 328.54 C 139.95 329.09 140.69 329.52 141.43 329.92 C 142.16 330.31 142.94 330.67 143.74 330.90 C 144.54 331.13 145.38 331.28 146.21 331.32 C 147.04 331.35 147.89 331.25 148.71 331.10 C 149.53 330.96 150.34 330.69 151.14 330.44 C 151.94 330.20 152.74 329.93 153.52 329.64 C 154.31 329.35 155.10 329.07 155.86 328.71 C 156.61 328.35 157.32 327.89 158.04 327.47 C 158.77 327.05 159.48 326.60 160.20 326.17 C 160.91 325.73 161.65 325.33 162.34 324.86 C 163.04 324.39 163.68 323.84 164.35 323.34 C 165.02 322.84 165.71 322.36 166.38 321.86 C 167.05 321.36 167.70 320.83 168.37 320.32 C 169.04 319.82 169.75 319.36 170.40 318.83 C 171.06 318.31 171.68 317.75 172.30 317.18 C 172.91 316.61 173.49 316.00 174.09 315.41 C 174.68 314.82 175.27 314.23 175.87 313.63 C 176.46 313.04 177.05 312.45 177.64 311.86 C 178.24 311.26 178.83 310.67 179.42 310.08 C 180.02 309.48 180.61 308.89 181.20 308.30 C 181.79 307.71 182.39 307.11 182.98 306.52 C 183.57 305.93 184.17 305.33 184.76 304.74 C 185.35 304.15 185.95 303.56 186.54 302.96 C 187.13 302.37 187.74 301.79 188.30 301.17 C 188.87 300.55 189.42 299.92 189.94 299.26 C 190.46 298.61 190.91 297.89 191.45 297.25 C 191.98 296.60 192.56 295.99 193.13 295.38 C 193.70 294.77 194.32 294.19 194.87 293.56 C 195.42 292.93 195.92 292.25 196.43 291.59 C 196.95 290.93 197.44 290.26 197.97 289.60 C 198.50 288.95 199.08 288.35 199.61 287.69 C 200.13 287.04 200.60 286.34 201.10 285.67 C 201.61 285.00 202.13 284.35 202.64 283.68 C 203.14 283.01 203.62 282.32 204.12 281.64 C 204.62 280.97 205.15 280.32 205.66 279.65 C 206.16 278.98 206.63 278.29 207.14 277.62 C 207.64 276.95 208.17 276.30 208.67 275.63 C 209.18 274.96 209.65 274.27 210.16 273.60 C 210.66 272.93 211.17 272.26 211.70 271.61 C 212.23 270.96 212.70 270.23 213.33 269.70 C 213.96 269.17 214.72 268.75 215.48 268.43 C 216.25 268.11 217.09 267.93 217.91 267.78 C 218.73 267.63 219.57 267.60 220.41 267.53 C 221.25 267.46 222.09 267.46 222.92 267.38 C 223.76 267.31 224.66 266.99 225.42 267.07 C 226.17 267.14 227.28 267.33 227.45 267.83 C 227.62 268.34 226.82 269.37 226.41 270.10 C 226.01 270.83 225.49 271.50 225.03 272.21 C 224.58 272.91 224.11 273.61 223.68 274.32 C 223.24 275.04 222.86 275.79 222.42 276.50 C 221.99 277.22 221.53 277.92 221.08 278.63 C 220.62 279.33 220.15 280.03 219.68 280.72 C 219.22 281.42 218.76 282.12 218.29 282.82 C 217.82 283.51 217.36 284.22 216.89 284.91 C 216.41 285.60 215.92 286.28 215.43 286.95 C 214.93 287.63 214.39 288.27 213.90 288.95 C 213.41 289.63 212.95 290.33 212.48 291.03 C 212.01 291.72 211.55 292.43 211.09 293.12 C 210.62 293.82 210.16 294.52 209.68 295.21 C 209.20 295.90 208.70 296.57 208.20 297.24 C 207.70 297.92 207.18 298.58 206.68 299.25 C 206.18 299.92 205.68 300.60 205.18 301.27 C 204.68 301.94 204.17 302.60 203.66 303.27 C 203.16 303.94 202.67 304.62 202.16 305.29 C 201.66 305.96 201.15 306.63 200.64 307.30 C 200.14 307.96 199.64 308.64 199.11 309.29 C 198.59 309.94 198.00 310.55 197.48 311.20 C 196.95 311.86 196.49 312.56 195.97 313.22 C 195.45 313.87 194.90 314.50 194.34 315.13 C 193.79 315.76 193.19 316.35 192.65 316.99 C 192.12 317.64 191.65 318.34 191.13 319.00 C 190.61 319.66 190.09 320.31 189.53 320.93 C 188.97 321.56 188.36 322.13 187.77 322.73 C 187.18 323.33 186.58 323.92 185.99 324.51 C 185.40 325.10 184.80 325.70 184.21 326.29 C 183.62 326.88 183.03 327.47 182.43 328.07 C 181.84 328.66 181.25 329.25 180.65 329.85 C 180.06 330.44 179.47 331.03 178.87 331.63 C 178.28 332.22 177.69 332.81 177.10 333.40 C 176.50 334.00 175.91 334.59 175.32 335.18 C 174.72 335.78 174.14 336.37 173.54 336.96 C 172.94 337.55 172.36 338.16 171.73 338.71 C 171.11 339.27 170.44 339.78 169.78 340.30 C 169.12 340.82 168.43 341.30 167.78 341.82 C 167.13 342.35 166.53 342.94 165.87 343.46 C 165.21 343.98 164.53 344.46 163.83 344.93 C 163.14 345.41 162.43 345.86 161.72 346.30 C 161.00 346.73 160.26 347.12 159.54 347.55 C 158.82 347.98 158.12 348.45 157.40 348.88 C 156.68 349.30 155.96 349.74 155.21 350.11 C 154.46 350.49 153.69 350.83 152.91 351.13 C 152.13 351.44 151.33 351.70 150.53 351.94 C 149.73 352.19 148.92 352.39 148.10 352.59 C 147.29 352.79 146.47 353.01 145.65 353.14 Z"/>
    <path fill="#15499a" fill-rule="evenodd" d="M 145.85,241.35 C 145.30 241.75 144.19 241.48 143.36 241.50 C 142.52 241.52 141.69 241.50 140.85 241.50 C 140.02 241.50 139.18 241.50 138.35 241.50 C 137.51 241.50 136.68 241.50 135.84 241.50 C 135.01 241.50 134.17 241.50 133.34 241.50 C 132.50 241.50 131.66 241.50 130.83 241.50 C 129.99 241.50 129.16 241.50 128.32 241.50 C 127.49 241.50 126.65 241.52 125.82 241.50 C 124.98 241.48 123.85 241.76 123.32 241.38 C 122.79 241.00 122.56 239.97 122.62 239.24 C 122.69 238.52 123.31 237.73 123.70 237.00 C 124.08 236.27 124.32 235.27 124.93 234.85 C 125.54 234.44 126.56 234.67 127.34 234.50 C 128.13 234.32 129.13 234.30 129.66 233.81 C 130.20 233.32 130.27 232.32 130.57 231.56 C 130.87 230.80 131.17 230.03 131.46 229.26 C 131.75 228.49 132.00 227.72 132.33 226.96 C 132.65 226.20 133.09 225.48 133.39 224.71 C 133.68 223.94 133.86 223.13 134.09 222.34 C 134.31 221.55 134.44 220.73 134.74 219.96 C 135.03 219.19 135.55 218.50 135.86 217.73 C 136.17 216.97 136.33 216.16 136.60 215.38 C 136.87 214.61 137.19 213.85 137.49 213.08 C 137.78 212.31 138.12 211.56 138.38 210.78 C 138.64 210.00 138.75 209.17 139.06 208.41 C 139.36 207.64 139.89 206.95 140.18 206.18 C 140.48 205.42 140.59 204.59 140.83 203.80 C 141.06 203.01 141.29 202.22 141.59 201.45 C 141.88 200.68 142.29 199.95 142.60 199.19 C 142.92 198.43 143.59 197.51 143.46 196.90 C 143.33 196.28 142.46 195.87 141.82 195.51 C 141.18 195.15 139.92 195.26 139.63 194.74 C 139.34 194.21 139.89 193.16 140.08 192.36 C 140.26 191.57 140.34 190.69 140.73 189.98 C 141.11 189.28 141.74 188.44 142.39 188.13 C 143.04 187.81 143.86 188.02 144.64 188.08 C 145.42 188.14 146.24 188.43 147.06 188.50 C 147.88 188.57 148.73 188.50 149.57 188.50 C 150.40 188.50 151.24 188.50 152.07 188.50 C 152.91 188.50 153.74 188.50 154.58 188.50 C 155.41 188.50 156.25 188.50 157.08 188.50 C 157.92 188.50 158.75 188.50 159.59 188.50 C 160.42 188.50 161.29 188.56 162.09 188.47 C 162.89 188.39 163.97 187.71 164.40 187.97 C 164.83 188.23 164.82 189.31 164.69 190.02 C 164.56 190.74 163.92 191.50 163.62 192.27 C 163.31 193.03 163.37 194.07 162.87 194.60 C 162.38 195.14 161.43 195.32 160.64 195.49 C 159.85 195.66 158.82 195.31 158.14 195.64 C 157.47 195.96 156.97 196.77 156.58 197.47 C 156.20 198.16 156.06 199.02 155.82 199.81 C 155.59 200.60 155.41 201.41 155.17 202.19 C 154.94 202.98 154.71 203.77 154.41 204.54 C 154.12 205.31 153.72 206.04 153.40 206.80 C 153.08 207.56 152.79 208.33 152.49 209.09 C 152.18 209.86 151.87 210.62 151.60 211.39 C 151.32 212.17 151.16 212.98 150.85 213.74 C 150.54 214.51 150.03 215.20 149.73 215.97 C 149.44 216.74 149.31 217.56 149.08 218.35 C 148.86 219.15 148.68 219.95 148.39 220.72 C 148.09 221.49 147.64 222.21 147.32 222.97 C 147.00 223.73 146.75 224.51 146.46 225.27 C 146.16 226.04 145.85 226.80 145.57 227.57 C 145.28 228.34 145.08 229.14 144.76 229.90 C 144.44 230.66 143.73 231.39 143.64 232.13 C 143.55 232.87 143.70 233.95 144.21 234.36 C 144.71 234.78 146.14 234.22 146.69 234.62 C 147.24 235.02 147.49 236.03 147.49 236.77 C 147.48 237.52 146.94 238.32 146.67 239.08 C 146.39 239.85 146.40 240.95 145.85 241.35 Z M 218.85,241.35 C 218.22 241.73 217.19 241.48 216.36 241.50 C 215.52 241.52 214.69 241.50 213.85 241.50 C 213.02 241.50 212.18 241.50 211.35 241.50 C 210.51 241.50 209.68 241.50 208.84 241.50 C 208.01 241.50 207.17 241.50 206.34 241.50 C 205.50 241.50 204.67 241.50 203.83 241.50 C 203.00 241.50 202.14 241.56 201.33 241.50 C 200.51 241.44 199.34 241.58 198.92 241.13 C 198.51 240.68 198.72 239.58 198.83 238.80 C 198.94 238.03 199.20 237.15 199.59 236.46 C 199.97 235.76 200.47 234.96 201.15 234.63 C 201.83 234.31 202.86 234.67 203.65 234.49 C 204.44 234.32 205.38 234.14 205.88 233.60 C 206.37 233.06 206.35 232.03 206.62 231.26 C 206.89 230.49 207.20 229.73 207.51 228.96 C 207.81 228.20 208.12 227.44 208.44 226.68 C 208.76 225.92 209.14 225.18 209.44 224.41 C 209.74 223.64 210.00 222.87 210.24 222.08 C 210.48 221.29 210.66 220.49 210.89 219.70 C 211.12 218.91 211.31 218.11 211.60 217.34 C 211.90 216.57 212.33 215.84 212.65 215.08 C 212.97 214.32 213.24 213.55 213.53 212.78 C 213.83 212.02 214.14 211.26 214.42 210.48 C 214.70 209.71 214.89 208.91 215.21 208.15 C 215.53 207.39 216.36 206.36 216.33 205.92 C 216.30 205.48 215.44 205.21 215.03 205.50 C 214.61 205.79 214.25 206.96 213.82 207.66 C 213.39 208.37 212.92 209.04 212.43 209.70 C 211.94 210.36 211.37 210.97 210.87 211.63 C 210.37 212.29 209.94 212.98 209.45 213.65 C 208.96 214.31 208.40 214.93 207.94 215.62 C 207.49 216.30 207.15 217.07 206.72 217.77 C 206.29 218.47 205.88 219.18 205.39 219.84 C 204.89 220.50 204.26 221.08 203.77 221.73 C 203.27 222.39 202.89 223.12 202.40 223.78 C 201.92 224.45 201.33 225.06 200.87 225.74 C 200.40 226.42 200.11 227.22 199.62 227.88 C 199.12 228.53 198.39 229.03 197.90 229.69 C 197.41 230.35 197.15 231.17 196.66 231.83 C 196.16 232.49 195.42 232.98 194.93 233.64 C 194.44 234.30 194.20 235.14 193.70 235.79 C 193.20 236.44 192.47 236.94 191.93 237.57 C 191.40 238.19 191.04 238.99 190.47 239.56 C 189.90 240.13 189.25 240.66 188.53 240.98 C 187.81 241.30 186.95 241.42 186.14 241.50 C 185.32 241.57 184.24 241.75 183.64 241.43 C 183.03 241.11 182.70 240.29 182.51 239.56 C 182.32 238.83 182.50 237.89 182.50 237.05 C 182.50 236.22 182.50 235.38 182.50 234.55 C 182.50 233.71 182.50 232.88 182.50 232.04 C 182.50 231.21 182.50 230.37 182.50 229.54 C 182.50 228.70 182.50 227.87 182.50 227.03 C 182.50 226.20 182.50 225.36 182.50 224.53 C 182.50 223.69 182.50 222.86 182.50 222.02 C 182.50 221.19 182.50 220.35 182.50 219.52 C 182.50 218.68 182.50 217.85 182.50 217.01 C 182.50 216.18 182.50 215.34 182.50 214.51 C 182.50 213.67 182.43 212.82 182.50 212.00 C 182.58 211.18 182.78 210.39 182.95 209.59 C 183.12 208.79 183.42 208.02 183.50 207.20 C 183.58 206.39 183.64 205.06 183.44 204.70 C 183.24 204.34 182.62 204.58 182.29 205.01 C 181.96 205.45 181.75 206.56 181.45 207.33 C 181.14 208.09 180.79 208.84 180.47 209.60 C 180.15 210.36 179.83 211.12 179.52 211.88 C 179.21 212.64 178.89 213.40 178.63 214.18 C 178.37 214.96 178.26 215.79 177.96 216.56 C 177.67 217.33 177.13 218.01 176.84 218.78 C 176.54 219.55 176.43 220.38 176.19 221.17 C 175.95 221.95 175.72 222.74 175.42 223.51 C 175.12 224.27 174.73 225.01 174.41 225.77 C 174.09 226.53 173.80 227.30 173.49 228.06 C 173.18 228.82 172.87 229.58 172.55 230.34 C 172.23 231.10 171.55 231.93 171.57 232.62 C 171.60 233.30 172.10 234.07 172.69 234.44 C 173.29 234.80 174.61 234.42 175.14 234.80 C 175.66 235.19 175.91 236.06 175.84 236.75 C 175.78 237.45 175.04 238.23 174.72 238.98 C 174.41 239.73 174.48 240.85 173.94 241.27 C 173.39 241.69 172.30 241.46 171.48 241.50 C 170.65 241.54 169.81 241.50 168.97 241.50 C 168.14 241.50 167.30 241.50 166.47 241.50 C 165.63 241.50 164.80 241.50 163.96 241.50 C 163.13 241.50 162.29 241.50 161.46 241.50 C 160.62 241.50 159.78 241.52 158.95 241.50 C 158.12 241.48 157.01 241.75 156.45 241.40 C 155.89 241.05 155.58 240.09 155.61 239.38 C 155.64 238.66 156.26 237.85 156.63 237.11 C 157.00 236.38 157.24 235.38 157.84 234.95 C 158.43 234.51 159.45 234.70 160.21 234.50 C 160.97 234.29 161.88 234.23 162.41 233.72 C 162.95 233.22 163.13 232.23 163.43 231.46 C 163.73 230.70 163.97 229.91 164.21 229.13 C 164.45 228.34 164.57 227.51 164.86 226.74 C 165.16 225.97 165.69 225.29 165.99 224.52 C 166.28 223.75 166.38 222.92 166.64 222.13 C 166.89 221.35 167.22 220.60 167.53 219.84 C 167.83 219.07 168.16 218.32 168.48 217.56 C 168.80 216.80 169.15 216.05 169.46 215.28 C 169.76 214.52 170.05 213.75 170.30 212.97 C 170.55 212.19 170.66 211.35 170.95 210.58 C 171.25 209.82 171.78 209.13 172.08 208.36 C 172.38 207.59 172.43 206.74 172.73 205.98 C 173.02 205.21 173.54 204.51 173.85 203.75 C 174.16 202.99 174.32 202.18 174.59 201.40 C 174.87 200.63 175.19 199.87 175.48 199.10 C 175.78 198.33 176.48 197.40 176.35 196.80 C 176.22 196.20 175.33 195.87 174.71 195.50 C 174.09 195.14 172.88 195.17 172.62 194.63 C 172.35 194.09 172.86 193.03 173.14 192.27 C 173.41 191.51 173.86 190.77 174.27 190.05 C 174.68 189.33 174.96 188.40 175.58 187.97 C 176.20 187.55 177.16 187.58 177.98 187.50 C 178.80 187.42 179.65 187.50 180.49 187.50 C 181.32 187.50 182.16 187.50 182.99 187.50 C 183.83 187.50 184.66 187.50 185.50 187.50 C 186.33 187.50 187.17 187.50 188.00 187.50 C 188.84 187.50 189.67 187.50 190.51 187.50 C 191.34 187.50 192.25 187.32 193.01 187.51 C 193.78 187.71 194.73 188.10 195.10 188.69 C 195.47 189.29 195.34 190.29 195.24 191.08 C 195.14 191.86 194.63 192.61 194.51 193.41 C 194.38 194.22 194.50 195.08 194.50 195.92 C 194.50 196.75 194.50 197.59 194.50 198.42 C 194.50 199.26 194.50 200.09 194.50 200.93 C 194.50 201.76 194.50 202.60 194.50 203.43 C 194.50 204.27 194.50 205.10 194.50 205.94 C 194.50 206.77 194.50 207.61 194.50 208.44 C 194.50 209.28 194.51 210.11 194.50 210.95 C 194.49 211.78 194.58 212.65 194.42 213.45 C 194.26 214.25 193.70 214.95 193.55 215.75 C 193.39 216.55 193.51 217.42 193.50 218.25 C 193.49 219.09 193.49 219.92 193.50 220.76 C 193.51 221.59 193.29 222.83 193.55 223.26 C 193.81 223.69 194.61 223.70 195.07 223.36 C 195.53 223.01 195.88 221.91 196.30 221.21 C 196.73 220.50 197.13 219.79 197.62 219.13 C 198.12 218.47 198.76 217.90 199.26 217.24 C 199.75 216.59 200.12 215.85 200.61 215.19 C 201.09 214.52 201.68 213.91 202.15 213.23 C 202.62 212.55 202.98 211.81 203.40 211.10 C 203.83 210.40 204.23 209.68 204.70 209.00 C 205.18 208.33 205.78 207.73 206.26 207.06 C 206.73 206.38 207.12 205.66 207.54 204.95 C 207.97 204.25 208.32 203.49 208.81 202.83 C 209.30 202.17 210.01 201.65 210.50 201.00 C 211.00 200.34 211.31 199.56 211.78 198.88 C 212.25 198.20 212.86 197.61 213.34 196.94 C 213.81 196.26 214.22 195.55 214.65 194.85 C 215.07 194.14 215.43 193.39 215.89 192.71 C 216.35 192.02 216.93 191.41 217.42 190.75 C 217.90 190.08 218.21 189.24 218.79 188.71 C 219.38 188.17 220.14 187.73 220.91 187.53 C 221.68 187.33 222.58 187.50 223.41 187.50 C 224.25 187.50 225.08 187.50 225.92 187.50 C 226.75 187.50 227.59 187.50 228.42 187.50 C 229.26 187.50 230.09 187.50 230.93 187.50 C 231.76 187.50 232.60 187.50 233.43 187.50 C 234.27 187.50 235.26 187.26 235.94 187.51 C 236.61 187.76 237.30 188.36 237.49 189.01 C 237.67 189.66 237.31 190.65 237.04 191.42 C 236.78 192.19 236.35 192.98 235.91 193.64 C 235.47 194.31 235.07 195.07 234.40 195.42 C 233.74 195.77 232.60 195.38 231.94 195.75 C 231.29 196.13 230.85 196.96 230.45 197.66 C 230.04 198.36 229.81 199.18 229.51 199.95 C 229.20 200.71 228.88 201.47 228.62 202.25 C 228.36 203.02 228.16 203.82 227.93 204.62 C 227.71 205.41 227.58 206.23 227.28 207.00 C 226.99 207.77 226.48 208.47 226.16 209.23 C 225.85 209.99 225.68 210.80 225.41 211.57 C 225.14 212.35 224.82 213.11 224.52 213.87 C 224.22 214.64 223.89 215.39 223.63 216.17 C 223.37 216.95 223.19 217.76 222.97 218.55 C 222.75 219.35 222.62 220.17 222.32 220.94 C 222.03 221.71 221.52 222.40 221.20 223.16 C 220.88 223.92 220.70 224.73 220.42 225.50 C 220.14 226.27 219.83 227.03 219.53 227.80 C 219.24 228.57 218.91 229.32 218.66 230.10 C 218.40 230.88 218.04 231.77 218.01 232.49 C 217.98 233.20 218.00 234.03 218.49 234.41 C 218.98 234.78 220.48 234.30 220.94 234.74 C 221.40 235.17 221.40 236.28 221.27 237.03 C 221.14 237.78 220.55 238.53 220.15 239.25 C 219.74 239.98 219.48 240.98 218.85 241.35 Z M 252.86,242.36 C 252.18 242.70 251.18 242.48 250.34 242.50 C 249.50 242.52 248.65 242.50 247.81 242.50 C 246.97 242.50 246.12 242.51 245.28 242.50 C 244.44 242.49 243.56 242.61 242.75 242.45 C 241.94 242.30 241.23 241.69 240.43 241.57 C 239.62 241.46 238.75 241.60 237.94 241.75 C 237.13 241.90 236.39 242.37 235.58 242.49 C 234.77 242.62 233.89 242.51 233.05 242.50 C 232.21 242.49 231.03 242.75 230.53 242.41 C 230.02 242.08 229.90 241.19 230.00 240.50 C 230.10 239.81 230.83 239.02 231.14 238.25 C 231.45 237.49 231.40 236.50 231.88 235.90 C 232.37 235.30 233.32 235.02 234.07 234.68 C 234.81 234.34 235.80 234.37 236.36 233.86 C 236.93 233.35 237.12 232.36 237.47 231.60 C 237.82 230.84 238.15 230.07 238.45 229.30 C 238.76 228.53 239.06 227.75 239.31 226.96 C 239.56 226.17 239.75 225.36 239.97 224.55 C 240.19 223.75 240.34 222.93 240.63 222.15 C 240.93 221.37 241.44 220.67 241.76 219.90 C 242.08 219.13 242.29 218.33 242.57 217.55 C 242.86 216.77 243.17 216.00 243.46 215.22 C 243.76 214.45 244.04 213.67 244.36 212.90 C 244.68 212.13 245.10 211.40 245.40 210.62 C 245.70 209.84 245.91 209.04 246.15 208.24 C 246.38 207.45 246.51 206.61 246.81 205.84 C 247.11 205.06 247.64 204.36 247.95 203.59 C 248.25 202.82 248.36 201.98 248.63 201.19 C 248.89 200.41 249.23 199.64 249.52 198.87 C 249.81 198.09 250.53 197.10 250.35 196.54 C 250.16 195.97 249.04 195.87 248.42 195.50 C 247.81 195.13 246.80 194.90 246.65 194.31 C 246.50 193.72 247.20 192.75 247.50 191.98 C 247.80 191.20 247.97 190.25 248.45 189.67 C 248.93 189.09 249.65 188.70 250.39 188.51 C 251.14 188.31 252.08 188.50 252.92 188.50 C 253.77 188.50 254.61 188.50 255.45 188.50 C 256.30 188.50 257.14 188.50 257.99 188.50 C 258.83 188.50 259.68 188.54 260.52 188.50 C 261.35 188.46 262.21 188.44 263.01 188.28 C 263.82 188.11 264.55 187.61 265.37 187.51 C 266.18 187.40 267.08 187.48 267.88 187.65 C 268.69 187.81 269.41 188.35 270.22 188.49 C 271.03 188.63 271.90 188.49 272.75 188.50 C 273.59 188.51 274.47 188.40 275.27 188.55 C 276.08 188.71 276.82 189.15 277.60 189.44 C 278.38 189.72 279.20 189.91 279.94 190.27 C 280.69 190.62 281.47 191.02 282.07 191.57 C 282.67 192.12 283.13 192.87 283.53 193.59 C 283.93 194.31 284.24 195.10 284.47 195.90 C 284.70 196.69 284.74 197.53 284.91 198.34 C 285.08 199.15 285.53 199.95 285.49 200.74 C 285.45 201.53 284.85 202.27 284.67 203.08 C 284.49 203.89 284.62 204.79 284.40 205.59 C 284.19 206.39 283.74 207.12 283.37 207.87 C 283.01 208.63 282.61 209.37 282.23 210.12 C 281.85 210.86 281.56 211.68 281.07 212.35 C 280.59 213.03 279.91 213.57 279.32 214.18 C 278.73 214.78 278.13 215.37 277.53 215.97 C 276.94 216.56 276.40 217.25 275.74 217.75 C 275.08 218.25 274.29 218.57 273.55 218.97 C 272.81 219.36 272.06 219.73 271.31 220.11 C 270.56 220.50 269.82 220.88 269.07 221.26 C 268.32 221.64 267.61 222.15 266.81 222.37 C 266.02 222.60 265.10 222.43 264.30 222.61 C 263.49 222.80 262.78 223.34 261.97 223.49 C 261.16 223.64 260.28 223.50 259.44 223.50 C 258.60 223.50 257.75 223.48 256.91 223.50 C 256.07 223.52 255.10 223.31 254.38 223.60 C 253.67 223.89 253.03 224.58 252.62 225.25 C 252.21 225.92 252.22 226.87 251.92 227.64 C 251.61 228.41 251.08 229.11 250.78 229.89 C 250.48 230.66 250.20 231.54 250.12 232.29 C 250.03 233.05 249.87 233.89 250.27 234.41 C 250.68 234.93 251.77 235.19 252.56 235.42 C 253.35 235.66 254.57 235.36 255.01 235.81 C 255.45 236.26 255.30 237.36 255.21 238.14 C 255.11 238.92 254.81 239.80 254.42 240.50 C 254.03 241.21 253.54 242.03 252.86 242.36 Z M 261.50,216.00 C 262.31 215.80 263.20 215.72 263.93 215.33 C 264.65 214.94 265.22 214.24 265.84 213.66 C 266.46 213.08 267.07 212.47 267.65 211.85 C 268.23 211.23 268.87 210.64 269.33 209.94 C 269.79 209.24 270.10 208.43 270.40 207.65 C 270.70 206.86 270.96 206.06 271.15 205.24 C 271.33 204.43 271.44 203.60 271.50 202.76 C 271.56 201.92 271.56 201.04 271.50 200.20 C 271.44 199.36 271.48 198.44 271.12 197.72 C 270.76 197.01 270.01 196.41 269.33 195.91 C 268.66 195.42 267.85 194.92 267.07 194.76 C 266.29 194.59 265.28 194.55 264.64 194.93 C 264.01 195.31 263.65 196.28 263.28 197.03 C 262.92 197.77 262.75 198.61 262.44 199.39 C 262.13 200.17 261.75 200.93 261.43 201.71 C 261.11 202.48 260.80 203.26 260.49 204.04 C 260.19 204.82 259.87 205.60 259.60 206.39 C 259.32 207.18 259.15 208.01 258.83 208.78 C 258.51 209.56 257.99 210.27 257.68 211.05 C 257.38 211.84 257.18 212.67 257.01 213.48 C 256.85 214.29 256.35 215.40 256.69 215.90 C 257.03 216.40 258.25 216.48 259.05 216.50 C 259.85 216.52 260.69 216.20 261.50 216.00 Z"/>
    <circle cx="307.50" cy="65.50" r="12.00" fill="url(#red-ball)"/>
<circle cx="119.50" cy="115.50" r="11.00" fill="url(#red-ball)"/>
<circle cx="304.00" cy="240.00" r="11.50" fill="url(#red-ball)"/>
</svg>
